<svg width="139" height="116" viewBox="0 0 139 116" fill="none" xmlns="http://www.w3.org/2000/svg">
<path fill-rule="evenodd" clip-rule="evenodd" d="M90.9961 0.000244141H105.092H113.901H127.997V10.0707C127.997 16.6981 122.624 22.0704 115.997 22.0704H115.664V23.4183C118.024 23.9963 119.775 26.1254 119.775 28.6635V34.0004H113.901H105.092H99.2183V28.6635C99.2183 26.1254 100.969 23.9963 103.329 23.4183V22.0704H102.996C96.3687 22.0704 90.9961 16.6981 90.9961 10.0707V0.000244141Z" fill="#E0F4FF"/>
<circle cx="98.7977" cy="9.00005" r="1.2" fill="#2E2E2E"/>
<circle cx="106.598" cy="9.00005" r="1.2" fill="#2E2E2E"/>
<path d="M100 13.0036C100 12.8077 100.195 12.6696 100.381 12.7296C100.929 12.906 101.953 13.2001 102.7 13.2001C103.447 13.2001 104.471 12.906 105.019 12.7296C105.205 12.6696 105.4 12.8077 105.4 13.0036C105.4 13.1216 105.327 13.2267 105.215 13.2646C104.758 13.4196 103.55 13.8001 102.7 13.8001C101.85 13.8001 100.642 13.4196 100.185 13.2646C100.073 13.2267 100 13.1216 100 13.0036Z" fill="#2E2E2E"/>
<rect x="24" y="52.1045" width="92" height="127" rx="8" transform="rotate(-8.08904 24 52.1045)" fill="#E0F4FF"/>
<rect x="46.4805" y="34" width="92" height="127" rx="8" fill="#FCD9DF"/>
<rect x="58.4805" y="50" width="16" height="16" rx="2" fill="#FAFAFA"/>
<rect x="58.4805" y="76" width="16" height="16" rx="2" fill="#FAFAFA"/>
<rect x="58.4805" y="102" width="16" height="16" rx="2" fill="#FAFAFA"/>
<rect x="79.4805" y="50" width="47" height="6" rx="2" fill="#FAFAFA"/>
<rect x="79.4805" y="76" width="47" height="6" rx="2" fill="#FAFAFA"/>
<rect x="79.4805" y="102" width="47" height="6" rx="2" fill="#FAFAFA"/>
<rect x="79.4805" y="60" width="47" height="6" rx="2" fill="#FAFAFA"/>
<rect x="79.4805" y="86" width="47" height="6" rx="2" fill="#FAFAFA"/>
<rect x="79.4805" y="112" width="47" height="6" rx="2" fill="#FAFAFA"/>
<path d="M19 43L17.74 45.75L15 47L17.74 48.26L19 51L20.25 48.26L23 47L20.25 45.75M9 46L6.5 51.5L1 54L6.5 56.5L9 62L11.5 56.5L17 54L11.5 51.5M19 57L17.74 59.74L15 61L17.74 62.25L19 65L20.25 62.25L23 61L20.25 59.74" fill="#FFCF00"/>
</svg>
