<svg width="118" height="118" viewBox="0 0 118 118" fill="none" xmlns="http://www.w3.org/2000/svg">
<path fill-rule="evenodd" clip-rule="evenodd" d="M68.2276 -0.000244141H81.5051V0H94.772L94.7903 2.35632C94.6955 2.39103 94.6013 2.42466 94.5071 2.4583L94.507 2.45833C93.4844 2.82346 92.4617 3.18859 90.7678 4.91666C87.406 9.75805 90.074 20.639 98.2463 32.7778C125.767 72.707 123.374 103.697 98.2463 113.828V118H81.5051H81.4945H64.7533V113.828H81.4945V113.828H64.7533C39.6257 103.697 37.2326 72.7068 64.7533 32.7775C72.9256 20.6387 75.5936 9.75781 72.2318 4.91642C70.5379 3.18835 69.5152 2.82322 68.4925 2.45809C68.3983 2.42444 68.3041 2.39079 68.2093 2.35608L68.2276 -0.000244141Z" fill="#FFFCEF"/>
<circle cx="69.6" cy="67.1999" r="3.6" fill="#2E2E2E"/>
<circle cx="93.6" cy="67.1999" r="3.6" fill="#2E2E2E"/>
<path d="M59.0882 84.0359C61.1599 86.7978 59.9636 88.9862 55.4728 93.4931L49.2027 86.2236C53.868 82.9347 56.4005 81.3372 59.0882 84.0359Z" fill="#FFFCEF"/>
<path d="M49.2012 86.2236C56.1703 81.9737 57.676 82.5 59.0867 84.0359C60.4974 85.5719 60.3784 87.7355 55.2756 93.2657" stroke="#E0E0E0" stroke-width="1.8" stroke-linecap="round"/>
<path d="M103.935 84.0359C101.864 86.7978 103.06 88.9862 107.551 93.4931L113.821 86.2236C109.155 82.9347 106.623 81.3372 103.935 84.0359Z" fill="#FFFCEF"/>
<path d="M113.822 86.2236C106.853 81.9737 105.347 82.5 103.937 84.0359C102.526 85.5719 102.645 87.7355 107.748 93.2657" stroke="#E0E0E0" stroke-width="1.8" stroke-linecap="round"/>
<path fill-rule="evenodd" clip-rule="evenodd" d="M-0.00390625 84.0002H14.0923H22.9009H36.997V94.0707C36.997 100.698 31.6244 106.07 24.997 106.07H24.6637V107.418C27.0237 107.996 28.7748 110.125 28.7748 112.664V118H22.9009H14.0923H8.21832V112.664C8.21832 110.125 9.96943 107.996 12.3294 107.418V106.07H11.9961C5.36868 106.07 -0.00390625 100.698 -0.00390625 94.0707V84.0002Z" fill="#E0F4FF"/>
<circle cx="7.79766" cy="93" r="1.2" fill="#2E2E2E"/>
<circle cx="15.5984" cy="93" r="1.2" fill="#2E2E2E"/>
<path d="M9 97.0036C9 96.8077 9.19496 96.6696 9.38133 96.7296C9.92863 96.906 10.9531 97.2001 11.7 97.2001C12.4469 97.2001 13.4714 96.906 14.0187 96.7296C14.205 96.6696 14.4 96.8077 14.4 97.0036C14.4 97.1216 14.3271 97.2267 14.2153 97.2646C13.7582 97.4196 12.5495 97.8001 11.7 97.8001C10.8505 97.8001 9.64182 97.4196 9.18469 97.2646C9.07287 97.2267 9 97.1216 9 97.0036Z" fill="#2E2E2E"/>
</svg>
