<svg width="250" height="282" viewBox="0 0 250 282" fill="none" xmlns="http://www.w3.org/2000/svg">
<g clip-path="url(#clip0_2349_28010)">
<path fill-rule="evenodd" clip-rule="evenodd" d="M163.529 0H188.903H204.758H230.131V18.1268C230.131 30.0561 220.461 39.7263 208.531 39.7263H207.931V42.1523C212.179 43.1926 215.331 47.0251 215.331 51.5937V61.2001H204.758H188.902H178.329V51.5937C178.329 47.0251 181.481 43.1926 185.729 42.1523V39.7263H185.129C173.2 39.7263 163.529 30.0561 163.529 18.1268V0Z" fill="#E0F4FF"/>
<path d="M177.574 18.36C178.767 18.36 179.734 17.393 179.734 16.2C179.734 15.0071 178.767 14.04 177.574 14.04C176.381 14.04 175.414 15.0071 175.414 16.2C175.414 17.393 176.381 18.36 177.574 18.36Z" fill="#2E2E2E"/>
<path d="M191.613 18.36C192.806 18.36 193.773 17.393 193.773 16.2C193.773 15.0071 192.806 14.04 191.613 14.04C190.42 14.04 189.453 15.0071 189.453 16.2C189.453 17.393 190.42 18.36 191.613 18.36Z" fill="#2E2E2E"/>
<path d="M179.732 23.4063C179.732 23.0538 180.083 22.8051 180.419 22.9132C181.404 23.2307 183.248 23.7601 184.592 23.7601C185.937 23.7601 187.781 23.2307 188.766 22.9132C189.102 22.8051 189.452 23.0538 189.452 23.4063C189.452 23.6188 189.321 23.808 189.12 23.8762C188.297 24.1552 186.122 24.8401 184.592 24.8401C183.063 24.8401 180.888 24.1552 180.065 23.8762C179.864 23.808 179.732 23.6188 179.732 23.4063Z" fill="#2E2E2E"/>
<path d="M192.827 72.3967L57.3876 91.6461C49.5138 92.7652 44.038 100.055 45.1571 107.929L73.2207 305.385C74.3397 313.259 81.6299 318.734 89.5037 317.615L224.943 298.366C232.816 297.247 238.292 289.957 237.173 282.083L209.109 84.6272C207.99 76.7534 200.7 71.2777 192.827 72.3967Z" fill="#E0F4FF"/>
<path d="M234.796 61.084H97.9957C90.0428 61.084 83.5957 67.5311 83.5957 75.484V275.284C83.5957 283.237 90.0428 289.684 97.9957 289.684H234.796C242.749 289.684 249.196 283.237 249.196 275.284V75.484C249.196 67.5311 242.749 61.084 234.796 61.084Z" fill="#FCD9DF"/>
<path d="M130.395 89.8843H108.795C106.807 89.8843 105.195 91.4961 105.195 93.4843V115.084C105.195 117.073 106.807 118.684 108.795 118.684H130.395C132.384 118.684 133.995 117.073 133.995 115.084V93.4843C133.995 91.4961 132.384 89.8843 130.395 89.8843Z" fill="#FAFAFA"/>
<path d="M130.395 136.684H108.795C106.807 136.684 105.195 138.296 105.195 140.284V161.884C105.195 163.872 106.807 165.484 108.795 165.484H130.395C132.384 165.484 133.995 163.872 133.995 161.884V140.284C133.995 138.296 132.384 136.684 130.395 136.684Z" fill="#FAFAFA"/>
<path d="M130.395 183.484H108.795C106.807 183.484 105.195 185.096 105.195 187.084V208.684C105.195 210.672 106.807 212.284 108.795 212.284H130.395C132.384 212.284 133.995 210.672 133.995 208.684V187.084C133.995 185.096 132.384 183.484 130.395 183.484Z" fill="#FAFAFA"/>
<path d="M130.395 230.284H108.795C106.807 230.284 105.195 231.896 105.195 233.884V255.484C105.195 257.472 106.807 259.084 108.795 259.084H130.395C132.384 259.084 133.995 257.472 133.995 255.484V233.884C133.995 231.896 132.384 230.284 130.395 230.284Z" fill="#FAFAFA"/>
<path d="M223.995 89.8843H146.595C144.607 89.8843 142.995 91.4961 142.995 93.4843V97.0843C142.995 99.0725 144.607 100.684 146.595 100.684H223.995C225.983 100.684 227.595 99.0725 227.595 97.0843V93.4843C227.595 91.4961 225.983 89.8843 223.995 89.8843Z" fill="#FAFAFA"/>
<path d="M223.995 136.684H146.595C144.607 136.684 142.995 138.296 142.995 140.284V143.884C142.995 145.872 144.607 147.484 146.595 147.484H223.995C225.983 147.484 227.595 145.872 227.595 143.884V140.284C227.595 138.296 225.983 136.684 223.995 136.684Z" fill="#FAFAFA"/>
<path d="M223.995 183.484H146.595C144.607 183.484 142.995 185.096 142.995 187.084V190.684C142.995 192.672 144.607 194.284 146.595 194.284H223.995C225.983 194.284 227.595 192.672 227.595 190.684V187.084C227.595 185.096 225.983 183.484 223.995 183.484Z" fill="#FAFAFA"/>
<path d="M223.995 230.284H146.595C144.607 230.284 142.995 231.896 142.995 233.884V237.484C142.995 239.472 144.607 241.084 146.595 241.084H223.995C225.983 241.084 227.595 239.472 227.595 237.484V233.884C227.595 231.896 225.983 230.284 223.995 230.284Z" fill="#FAFAFA"/>
<path d="M223.995 107.884H146.595C144.607 107.884 142.995 109.496 142.995 111.484V115.084C142.995 117.072 144.607 118.684 146.595 118.684H223.995C225.983 118.684 227.595 117.072 227.595 115.084V111.484C227.595 109.496 225.983 107.884 223.995 107.884Z" fill="#FAFAFA"/>
<path d="M223.995 154.684H146.595C144.607 154.684 142.995 156.296 142.995 158.284V161.884C142.995 163.872 144.607 165.484 146.595 165.484H223.995C225.983 165.484 227.595 163.872 227.595 161.884V158.284C227.595 156.296 225.983 154.684 223.995 154.684Z" fill="#FAFAFA"/>
<path d="M223.995 201.484H146.595C144.607 201.484 142.995 203.096 142.995 205.084V208.684C142.995 210.672 144.607 212.284 146.595 212.284H223.995C225.983 212.284 227.595 210.672 227.595 208.684V205.084C227.595 203.096 225.983 201.484 223.995 201.484Z" fill="#FAFAFA"/>
<path d="M223.995 248.284H146.595C144.607 248.284 142.995 249.896 142.995 251.884V255.484C142.995 257.472 144.607 259.084 146.595 259.084H223.995C225.983 259.084 227.595 257.472 227.595 255.484V251.884C227.595 249.896 225.983 248.284 223.995 248.284Z" fill="#FAFAFA"/>
<path d="M34.1447 77.2559L31.8804 82.2022L26.9563 84.4505L31.8804 86.7168L34.1447 91.6451L36.3911 86.7168L41.3331 84.4505L36.3911 82.2022M16.1737 82.6518L11.6809 92.5444L1.79688 97.041L11.6809 101.538L16.1737 111.43L20.6664 101.538L30.5505 97.041L20.6664 92.5444M34.1447 102.437L31.8804 107.365L26.9563 109.632L31.8804 111.88L34.1447 116.826L36.3911 111.88L41.3331 109.632L36.3911 107.365" fill="#FFCF00"/>
</g>
<defs>
<clipPath id="clip0_2349_28010">
<rect width="250" height="282" fill="white"/>
</clipPath>
</defs>
</svg>
