<svg width="269" height="226" viewBox="0 0 269 226" fill="none" xmlns="http://www.w3.org/2000/svg">
<path fill-rule="evenodd" clip-rule="evenodd" d="M30.1766 54.6151L47.4277 49.9964L64.6649 45.3818L65.5095 48.4365C65.3984 48.5146 65.2876 48.5911 65.1769 48.6677C63.9754 49.4978 62.7739 50.3278 61.1751 53.162C58.4939 60.6209 65.7508 73.8282 80.5973 86.7549C130.264 129.054 137.95 170.145 108.833 192.048L110.285 197.467L88.5346 203.29L88.521 203.294L66.7701 209.118L65.3168 203.698C29.1409 199.277 15.2365 159.851 37.0823 98.4052C43.4714 79.7929 43.1467 64.7294 37.0923 59.6094C34.2895 57.9536 32.8336 57.835 31.3778 57.7164C31.2434 57.7055 31.1091 57.6946 30.9737 57.6824L30.1766 54.6151Z" fill="#FFFCEF"/>
<path d="M56.6259 146.113C59.2091 145.422 60.7417 142.767 60.0491 140.184C59.3564 137.601 56.7009 136.068 54.1177 136.76C51.5345 137.451 50.0019 140.106 50.6946 142.689C51.3872 145.272 54.0428 146.805 56.6259 146.113Z" fill="#2E2E2E"/>
<path d="M87.8076 137.765C90.3908 137.074 91.9234 134.419 91.2307 131.836C90.5381 129.253 87.8825 127.72 85.2993 128.412C82.7162 129.103 81.1836 131.758 81.8762 134.341C82.5688 136.924 85.2244 138.457 87.8076 137.765Z" fill="#2E2E2E"/>
<path d="M47.5757 166.966C51.2295 169.834 50.4375 173.093 46.173 180.51L35.4941 173.247C40.4098 167.352 43.1435 164.395 47.5757 166.966Z" fill="#FFFCEF"/>
<path d="M35.4941 173.247C43.068 165.302 45.2076 165.462 47.5755 166.967C49.9434 168.471 50.5426 171.323 45.8394 180.283" stroke="#E0E0E0" stroke-width="2.421" stroke-linecap="round"/>
<path d="M105.846 151.365C104.117 155.673 106.434 158.1 113.838 162.393L119.452 150.768C112.245 148.118 108.398 146.924 105.846 151.365Z" fill="#FFFCEF"/>
<path d="M119.453 150.768C108.918 147.671 107.146 148.878 105.848 151.364C104.55 153.85 105.458 156.62 114.015 162.029" stroke="#E0E0E0" stroke-width="2.421" stroke-linecap="round"/>
<path d="M242.101 23.3736L126.767 11.2609C120.2 10.5713 114.317 15.3355 113.626 21.9021L94.9455 199.499C94.2548 206.066 99.0183 211.948 105.585 212.638L220.919 224.751C227.485 225.44 233.369 220.676 234.059 214.109L252.74 36.5122C253.431 29.9456 248.667 24.0632 242.101 23.3736Z" fill="#FCD9DF"/>
<path d="M231.227 32.6865L135.512 22.6345C128.945 21.9448 123.062 26.709 122.371 33.2756L105.877 190.082C105.187 196.649 109.95 202.531 116.517 203.221L212.231 213.273C218.798 213.963 224.681 209.199 225.372 202.632L241.866 45.8252C242.557 39.2585 237.793 33.3762 231.227 32.6865Z" fill="#E0F4FF"/>
<path fill-rule="evenodd" clip-rule="evenodd" d="M197.243 10.4038C197.867 11.8544 199.097 13.0528 200.668 13.2178L210.904 14.2928C212.874 14.4998 214.304 16.2656 214.097 18.2362L212.579 32.6694C212.372 34.6388 210.608 36.0671 208.638 35.8603L159.295 30.6781C157.324 30.4711 155.894 28.7053 156.101 26.7346L157.62 12.3014C157.827 10.3321 159.591 8.90376 161.56 9.11059L171.803 10.1863C173.372 10.3511 174.823 9.43571 175.734 8.14785C178.239 4.60742 182.533 2.48791 187.152 2.97306C191.77 3.45809 195.528 6.42183 197.243 10.4038Z" fill="#E0E0E0"/>
<path fill-rule="evenodd" clip-rule="evenodd" d="M246.211 155.863C259.982 146.074 269 129.754 269 111.276C269 81.329 245.314 57.0522 216.097 57.0522C186.879 57.0522 163.193 81.329 163.193 111.276C163.193 141.223 186.879 165.5 216.097 165.5C224.506 165.5 232.457 163.488 239.517 159.91L247.697 174.553C248.751 176.438 251.111 177.075 252.969 175.975C254.828 174.875 255.481 172.455 254.427 170.57L246.211 155.863Z" fill="#616161"/>
<path d="M215.798 153.816C239.568 153.816 258.838 134.562 258.838 110.81C258.838 87.0586 239.568 67.8042 215.798 67.8042C192.027 67.8042 172.758 87.0586 172.758 110.81C172.758 134.562 192.027 153.816 215.798 153.816Z" fill="white"/>
<path d="M220.269 126.302C219.603 124.912 220.217 123.306 221.64 122.715L221.834 122.634C223.257 122.043 224.951 122.69 225.617 124.08C226.283 125.47 225.669 127.076 224.245 127.667L224.051 127.748C222.628 128.339 220.935 127.692 220.269 126.302ZM208.962 93.7816C218.676 90.1873 227.171 97.5212 224.758 106.672C224.082 108.965 222.224 111.065 221.722 112.963C221.472 113.86 221.522 114.71 221.73 115.534C222.116 117.069 221.606 118.705 220.129 119.319C218.652 119.932 216.862 119.273 216.246 117.801C215.532 116.094 215.108 114.548 215.37 113.088C215.742 110.922 217.657 108.939 218.606 107.217C221.119 101.666 217.501 96.7916 211.374 98.815C209.956 99.4044 208.849 100.5 208.299 101.861C208.111 102.324 207.993 102.806 207.945 103.292C207.789 104.846 207.241 106.568 205.764 107.182C204.287 107.796 202.485 107.118 202.211 105.565C201.875 103.663 202.073 101.699 202.812 99.8731C203.913 97.1516 206.126 94.9604 208.962 93.7816Z" fill="#616161"/>
</svg>
