<svg width="106" height="124" viewBox="0 0 106 124" fill="none" xmlns="http://www.w3.org/2000/svg">
<g id="Error Image 1">
<g id="Clip path group">
<mask id="mask0_3374_42567" style="mask-type:luminance" maskUnits="userSpaceOnUse" x="0" y="26" width="51" height="48">
<g id="clip0_3374_20230">
<path id="Vector" d="M39.693 26.0846L0.28125 37.3857L10.7555 73.9137L50.1672 62.6126L39.693 26.0846Z" fill="white"/>
</g>
</mask>
<g mask="url(#mask0_3374_42567)">
<g id="Group">
<path id="Vector_2" fill-rule="evenodd" clip-rule="evenodd" d="M2.75391 38.758L16.5961 34.7889L25.2474 32.3081L39.0896 28.3389L41.9012 38.144C43.7279 44.5148 40.0443 51.1598 33.6736 52.9866L33.0969 53.152L33.4645 54.4341C35.9266 54.2958 38.245 55.8683 38.9534 58.3386L40.4418 63.5295L34.6742 65.1833L26.0229 67.664L20.2553 69.3178L18.7669 64.127C18.0585 61.6567 19.1914 59.0946 21.3526 57.9071L20.985 56.625L20.4082 56.7904C14.0375 58.6172 7.39225 54.9339 5.56546 48.5631L2.75391 38.758Z" fill="#E0F4FF"/>
<path id="Vector_3" d="M2.75499 38.7581L2.42423 37.6046C1.78716 37.7873 1.4188 38.4518 1.60148 39.0889L2.75499 38.7581ZM39.0907 28.339L40.2442 28.0083C40.0615 27.3712 39.397 27.0028 38.7599 27.1855L39.0907 28.339ZM33.098 53.1521L32.7672 51.9986C32.1302 52.1812 31.7618 52.8458 31.9444 53.4828L33.098 53.1521ZM33.4656 54.4342L32.3121 54.765C32.4666 55.3037 32.9733 55.6637 33.533 55.6323L33.4656 54.4342ZM40.4429 63.5295L40.7737 64.683C41.4107 64.5004 41.7791 63.8358 41.5964 63.1988L40.4429 63.5295ZM20.2564 69.3179L19.1029 69.6487C19.2856 70.2857 19.9501 70.6541 20.5872 70.4714L20.2564 69.3179ZM21.3537 57.9072L21.9315 58.959C22.4227 58.6891 22.6617 58.1152 22.5072 57.5765L21.3537 57.9072ZM20.9861 56.6251L22.1396 56.2943C21.9569 55.6573 21.2923 55.2889 20.6553 55.4716L20.9861 56.6251ZM16.2664 33.6354L2.42423 37.6046L3.08576 39.9116L16.9279 35.9425L16.2664 33.6354ZM16.9279 35.9425L25.5793 33.4617L24.9178 31.1547L16.2664 33.6354L16.9279 35.9425ZM25.5793 33.4617L39.4215 29.4925L38.7599 27.1855L24.9178 31.1547L25.5793 33.4617ZM37.9372 28.6698L40.7487 38.4749L43.0558 37.8133L40.2442 28.0083L37.9372 28.6698ZM40.7487 38.4749C42.3928 44.2085 39.0776 50.1891 33.3439 51.8332L34.0055 54.1402C41.0132 52.1308 45.0652 44.8211 43.0558 37.8133L40.7487 38.4749ZM33.3439 51.8332L32.7672 51.9986L33.4287 54.3056L34.0055 54.1402L33.3439 51.8332ZM31.9444 53.4828L32.3121 54.765L34.6191 54.1034L34.2515 52.8213L31.9444 53.4828ZM33.533 55.6323C35.4477 55.5247 37.2504 56.7496 37.8009 58.6695L40.108 58.008C39.2418 54.9872 36.4076 53.067 33.3983 53.2362L33.533 55.6323ZM37.8009 58.6695L39.2894 63.8603L41.5964 63.1988L40.108 58.008L37.8009 58.6695ZM40.1121 62.376L34.3446 64.0298L35.0061 66.3369L40.7737 64.683L40.1121 62.376ZM34.3446 64.0298L25.6932 66.5106L26.3547 68.8176L35.0061 66.3369L34.3446 64.0298ZM20.5872 70.4714L26.3547 68.8176L25.6932 66.5106L19.9256 68.1644L20.5872 70.4714ZM17.6145 64.4579L19.1029 69.6487L21.4099 68.9872L19.9215 63.7963L17.6145 64.4579ZM20.7759 56.8555C18.1342 58.3068 16.7483 61.4371 17.6145 64.4579L19.9215 63.7963C19.3709 61.8764 20.2507 59.8824 21.9315 58.959L20.7759 56.8555ZM19.8325 56.9559L20.2002 58.238L22.5072 57.5765L22.1396 56.2943L19.8325 56.9559ZM20.7401 57.944L21.3168 57.7786L20.6553 55.4716L20.0785 55.637L20.7401 57.944ZM4.41303 48.8939C6.42248 55.9017 13.7323 59.9534 20.7401 57.944L20.0785 55.637C14.3449 57.2811 8.36415 53.9661 6.72006 48.2324L4.41303 48.8939ZM1.60148 39.0889L4.41303 48.8939L6.72006 48.2324L3.9085 38.4274L1.60148 39.0889Z" fill="#E0E0E0"/>
<path id="Vector_4" d="M11.6875 44.5186L13.2958 44.8186C13.5389 44.8638 13.6259 45.1672 13.4437 45.3344L12.2388 46.4411" stroke="#2E2E2E" stroke-width="0.6" stroke-linecap="round"/>
<path id="Vector_5" d="M20.3414 42.0381L19.1365 43.1448C18.9543 43.3119 19.0413 43.6153 19.2844 43.6606L20.8927 43.9606" stroke="#2E2E2E" stroke-width="0.6" stroke-linecap="round"/>
<path id="Vector_6" d="M15.1009 49.1537C15.1548 49.342 15.3804 49.421 15.5429 49.3119C16.0204 48.9915 16.9241 48.4264 17.6421 48.2205C18.3601 48.0147 19.4259 48.015 20.0007 48.0337C20.1963 48.04 20.3457 47.8535 20.2917 47.6653C20.2591 47.5518 20.1601 47.4708 20.0422 47.4652C19.5601 47.4422 18.2933 47.4096 17.4767 47.6438C16.6601 47.8779 15.6031 48.5769 15.2065 48.8518C15.1094 48.9191 15.0683 49.0402 15.1009 49.1537Z" fill="#2E2E2E"/>
</g>
</g>
</g>
<g id="Clip path group_2">
<mask id="mask1_3374_42567" style="mask-type:luminance" maskUnits="userSpaceOnUse" x="19" y="0" width="87" height="124">
<g id="clip1_3374_20230">
<path id="Vector_7" d="M105.723 0H19.7227V124H105.723V0Z" fill="white"/>
</g>
</mask>
<g mask="url(#mask1_3374_42567)">
<g id="Group_2">
<path id="Vector_8" fill-rule="evenodd" clip-rule="evenodd" d="M45.4236 2.60156H58.7275H58.74H72.0439L72.0623 4.97361C71.967 5.00865 71.8723 5.04261 71.7775 5.07656C70.7519 5.44417 69.7263 5.81178 68.0275 7.55156C64.6561 12.4257 67.3316 23.3802 75.5273 35.6012C103.127 75.8012 100.728 107.001 75.5281 117.201V121.401H58.7391H58.7281H41.9391V117.201C16.7391 107.001 14.3391 75.8012 41.9391 35.6012H41.9403C50.1359 23.3802 52.8115 12.4257 49.44 7.55156C47.7412 5.81178 46.7156 5.44417 45.69 5.07656C45.5954 5.04262 45.5005 5.00863 45.4053 4.97361L45.4236 2.60156Z" fill="#FFFCEF"/>
<g id="Mask group">
<mask id="mask2_3374_42567" style="mask-type:luminance" maskUnits="userSpaceOnUse" x="19" y="-1" width="80" height="126">
<g id="Group_3">
<path id="Vector_9" d="M98.1289 -0.398438H19.1289V124.602H98.1289V-0.398438Z" fill="white"/>
<path id="Vector_10" fill-rule="evenodd" clip-rule="evenodd" d="M45.4236 2.60156H58.7275H58.74H72.0439L72.0623 4.97361C71.967 5.00865 71.8723 5.04261 71.7775 5.07656C70.7519 5.44417 69.7263 5.81178 68.0275 7.55156C64.6561 12.4257 67.3316 23.3802 75.5273 35.6012C103.127 75.8012 100.728 107.001 75.5281 117.201V121.401H58.7391H58.7281H41.9391V117.201C16.7391 107.001 14.3391 75.8012 41.9391 35.6012H41.9403C50.1359 23.3802 52.8115 12.4257 49.44 7.55156C47.7412 5.81178 46.7156 5.44417 45.69 5.07656C45.5954 5.04262 45.5005 5.00863 45.4053 4.97361L45.4236 2.60156Z" fill="black"/>
</g>
</mask>
<g mask="url(#mask2_3374_42567)">
<g id="Group_4">
<path id="Vector_11" d="M45.4252 2.60117V0.201172C44.1069 0.201172 43.0354 1.26443 43.0253 2.58264L45.4252 2.60117ZM72.0455 2.60117L74.4455 2.58265C74.4353 1.26443 73.3638 0.201172 72.0455 0.201172V2.60117ZM72.0639 4.97322L72.8923 7.22571C73.8428 6.87612 74.4716 5.96745 74.4638 4.9547L72.0639 4.97322ZM68.0291 7.55117L66.3119 5.87447C66.2178 5.97089 66.132 6.07506 66.0553 6.18588L68.0291 7.55117ZM75.5289 35.6008L73.5356 36.9375C73.9812 37.602 74.7287 38.0008 75.5289 38.0008V35.6008ZM75.5289 35.6008L77.5083 34.2424C77.0607 33.5904 76.3206 33.2008 75.5297 33.2008L75.5289 35.6008ZM75.5297 117.201L74.6293 114.976C73.7229 115.343 73.1297 116.223 73.1297 117.201H75.5297ZM75.5297 121.401V123.801C76.8552 123.801 77.9297 122.727 77.9297 121.401H75.5297ZM41.9407 121.401H39.5407C39.5407 122.727 40.6152 123.801 41.9407 123.801V121.401ZM41.9407 117.201H44.3407C44.3407 116.223 43.7475 115.343 42.8411 114.976L41.9407 117.201ZM41.9407 35.6008V33.2008C41.1498 33.2008 40.4097 33.5904 39.9621 34.2424L41.9407 35.6008ZM41.9419 35.6008V38.0008C42.742 38.0008 43.4895 37.602 43.9352 36.9375L41.9419 35.6008ZM49.4416 7.55117L51.4154 6.18588C51.3388 6.07506 51.2529 5.97089 51.1588 5.87447L49.4416 7.55117ZM45.6916 5.07617L44.8796 7.33464L44.8818 7.33543L45.6916 5.07617ZM45.6916 5.07617L46.5034 2.81764L46.5012 2.81685L45.6916 5.07617ZM45.4069 4.97322L43.007 4.9547C42.9991 5.96745 43.6279 6.87612 44.5784 7.22571L45.4069 4.97322ZM58.7291 0.201172H45.4252V5.00117H58.7291V0.201172ZM58.7291 5.00117H58.7416V0.201172H58.7291V5.00117ZM58.7416 5.00117H72.0455V0.201172H58.7416V5.00117ZM69.6456 2.6197L69.6639 4.99175L74.4638 4.9547L74.4455 2.58265L69.6456 2.6197ZM71.2354 2.72074C71.151 2.75179 71.0656 2.78242 70.9693 2.81691L72.5889 7.33543C72.6821 7.30201 72.7862 7.26474 72.8923 7.22571L71.2354 2.72074ZM70.9693 2.81691C70.453 3.00199 69.7445 3.25138 68.929 3.7368C68.1147 4.22152 67.2725 4.89078 66.3119 5.87447L69.7463 9.22787C70.4846 8.47178 71.0045 8.08734 71.3841 7.86141C71.7625 7.63618 72.0796 7.51796 72.5889 7.33543L70.9693 2.81691ZM66.0553 6.18588C63.7563 9.50963 63.7966 14.3574 65.119 19.4268C66.4768 24.6312 69.3333 30.6712 73.5356 36.9375L77.5221 34.264C73.5288 28.3094 70.9497 22.7616 69.7636 18.2151C68.5423 13.5334 68.9305 10.4669 70.0029 8.91647L66.0553 6.18588ZM73.5512 36.9592C87.2078 56.8504 93.2153 74.2041 92.9303 87.5997C92.6495 100.795 86.2909 110.256 74.6293 114.976L76.4302 119.426C89.9685 113.946 97.4099 102.707 97.7292 87.7018C98.0442 72.8975 91.4516 54.5511 77.5083 34.2424L73.5512 36.9592ZM73.1297 117.201V121.401H77.9297V117.201H73.1297ZM75.5297 119.001H58.7407V123.801H75.5297V119.001ZM58.7407 119.001H58.7297V123.801H58.7407V119.001ZM41.9407 123.801H58.7297V119.001H41.9407V123.801ZM39.5407 117.201V121.401H44.3407V117.201H39.5407ZM39.9621 34.2424C26.0188 54.5511 19.4263 72.8975 19.7412 87.7018C20.0605 102.707 27.5019 113.946 41.0402 119.426L42.8411 114.976C31.1794 110.256 24.8209 100.795 24.5401 87.5997C24.2551 74.2041 30.2626 56.8504 43.9192 36.9592L39.9621 34.2424ZM41.9419 33.2008H41.9407V38.0008H41.9419V33.2008ZM47.4678 8.91647C48.5402 10.4669 48.9285 13.5334 47.7071 18.2151C46.5211 22.7616 43.9419 28.3094 39.9486 34.264L43.9352 36.9375C48.1375 30.6712 50.994 24.6312 52.3517 19.4268C53.6742 14.3574 53.7145 9.50963 51.4154 6.18588L47.4678 8.91647ZM44.8818 7.33543C45.3911 7.51796 45.7082 7.63618 46.0866 7.86141C46.4662 8.08734 46.9862 8.47178 47.7244 9.22787L51.1588 5.87447C50.1983 4.89078 49.3561 4.22152 48.5417 3.7368C47.7262 3.25138 47.0176 3.00193 46.5012 2.81685L44.8818 7.33543ZM44.5784 7.22571C44.6845 7.26471 44.7886 7.30203 44.8818 7.33543L46.5012 2.81685C46.4051 2.78238 46.3197 2.75176 46.2353 2.72074L44.5784 7.22571ZM43.0253 2.58264L43.007 4.9547L47.8068 4.99175L47.8251 2.6197L43.0253 2.58264Z" fill="#E0E0E0"/>
</g>
</g>
</g>
<path id="Vector_12" d="M46.725 73.4002C48.7132 73.4002 50.325 71.7884 50.325 69.8002C50.325 67.812 48.7132 66.2002 46.725 66.2002C44.7368 66.2002 43.125 67.812 43.125 69.8002C43.125 71.7884 44.7368 73.4002 46.725 73.4002Z" fill="#2E2E2E"/>
<path id="Vector_13" d="M70.725 73.4002C72.7132 73.4002 74.325 71.7884 74.325 69.8002C74.325 67.812 72.7132 66.2002 70.725 66.2002C68.7368 66.2002 67.125 67.812 67.125 69.8002C67.125 71.7884 68.7368 73.4002 70.725 73.4002Z" fill="#2E2E2E"/>
<path id="Vector_14" d="M36.2136 86.637C38.2853 89.399 37.089 91.5873 32.5982 96.0942L26.3281 88.8247C30.9935 85.5359 33.5259 83.9383 36.2136 86.637Z" fill="#FFFCEF"/>
<path id="Vector_15" d="M26.3281 88.8234C33.2972 84.5735 34.803 85.0998 36.2136 86.6357C37.6243 88.1717 37.5053 90.3353 32.4026 95.8655" stroke="#E0E0E0" stroke-width="2.4" stroke-linecap="round"/>
<path id="Vector_16" d="M88.2031 66.2373L84.2031 91.2373" stroke="#474747" stroke-width="3"/>
<path id="Vector_17" d="M81.0623 86.636C78.9906 89.398 80.1869 91.5864 84.6777 96.0932L90.9478 88.8237C86.2825 85.5349 83.75 83.9373 81.0623 86.636Z" fill="#FFFCEF"/>
<path id="Vector_18" d="M90.9475 88.8234C83.9784 84.5735 82.4726 85.0998 81.0619 86.6357C79.6512 88.1717 79.7703 90.3353 84.873 95.8655" stroke="#E0E0E0" stroke-width="2.4" stroke-linecap="round"/>
<path id="Vector_19" d="M90.7227 69C99.0069 69 105.723 62.2843 105.723 54C105.723 45.7157 99.0069 39 90.7227 39C82.4384 39 75.7227 45.7157 75.7227 54C75.7227 62.2843 82.4384 69 90.7227 69Z" fill="#FFCF00"/>
<g id="Mask group_2">
<mask id="mask3_3374_42567" style="mask-type:luminance" maskUnits="userSpaceOnUse" x="78" y="40" width="26" height="26">
<g id="Group_5">
<path id="Vector_20" d="M103.41 44.0013L81.7221 40.3105L78.0312 61.9988L99.7196 65.6895L103.41 44.0013Z" fill="white"/>
</g>
</mask>
<g mask="url(#mask3_3374_42567)">
<g id="Group_6">
<path id="Vector_21" d="M90.1054 56.6148C89.9267 56.5843 89.7429 56.6076 89.5774 56.6816C89.4119 56.7556 89.2721 56.8771 89.1756 57.0305C89.0791 57.184 89.0303 57.3627 89.0353 57.5439C89.0403 57.7251 89.099 57.9008 89.2039 58.0487C89.3087 58.1966 89.4551 58.31 89.6245 58.3747C89.7938 58.4394 89.9786 58.4525 90.1554 58.4122C90.3321 58.3719 90.493 58.2801 90.6175 58.1484C90.7421 58.0166 90.8249 57.8509 90.8553 57.6722C90.8961 57.4325 90.84 57.1865 90.6993 56.9882C90.5587 56.7899 90.3451 56.6555 90.1054 56.6148ZM99.5215 59.584L94.3999 45.6946C94.2365 45.233 93.9528 44.8235 93.5782 44.5082C93.2036 44.1929 92.7515 43.9834 92.2689 43.9013C91.7862 43.8191 91.2903 43.8674 90.8325 44.041C90.3747 44.2146 89.9715 44.5073 89.6646 44.8888L80.2823 56.31C79.9692 56.6789 79.759 57.1239 79.6728 57.6C79.5867 58.0761 79.6277 58.5665 79.7917 59.0217C79.9557 59.4769 80.2369 59.8808 80.6069 60.1925C80.9769 60.5043 81.4227 60.7129 81.8991 60.7973L96.4663 63.2763C96.9463 63.3628 97.4407 63.3202 97.8988 63.1527C98.3569 62.9852 98.7621 62.6989 99.0731 62.3231C99.384 61.9473 99.5894 61.4956 99.6682 61.0143C99.747 60.5329 99.6964 60.0393 99.5215 59.584ZM97.6506 61.1253C97.5474 61.2528 97.4119 61.3502 97.2583 61.4074C97.1046 61.4647 96.9384 61.4797 96.777 61.4509L82.2097 58.9719C82.0478 58.9457 81.8959 58.8766 81.7699 58.7718C81.6438 58.6669 81.5481 58.5301 81.4929 58.3757C81.437 58.2248 81.4217 58.0619 81.4487 57.9033C81.4757 57.7447 81.544 57.5959 81.6467 57.472L91.029 46.0508C91.13 45.9157 91.2664 45.8111 91.4231 45.7485C91.5797 45.6859 91.7506 45.6678 91.9169 45.6961C92.0833 45.7244 92.2385 45.798 92.3657 45.9089C92.4928 46.0198 92.5869 46.1636 92.6376 46.3246L97.7592 60.2139C97.8258 60.3646 97.8506 60.5304 97.831 60.694C97.8113 60.8575 97.748 61.0128 97.6476 61.1434L97.6506 61.1253ZM91.3356 49.3854C91.096 49.3446 90.8499 49.4007 90.6516 49.5413C90.4533 49.6819 90.319 49.8956 90.2782 50.1352L89.663 53.75C89.6223 53.9896 89.6784 54.2357 89.819 54.434C89.9596 54.6323 90.1733 54.7666 90.4129 54.8074C90.6526 54.8482 90.8987 54.7921 91.097 54.6515C91.2953 54.5108 91.4296 54.2972 91.4704 54.0575L92.0855 50.4428C92.1263 50.2031 92.0702 49.9571 91.9296 49.7588C91.7889 49.5605 91.5753 49.4261 91.3356 49.3854Z" fill="#474747"/>
</g>
</g>
</g>
</g>
</g>
</g>
</g>
</svg>
