<svg viewBox="0 0 136 206" fill="none" xmlns="http://www.w3.org/2000/svg">
<mask id="path-1-outside-1_1088_18277" maskUnits="userSpaceOnUse" x="0" y="0" width="131" height="206" fill="black">
<rect fill="white" width="131" height="206"/>
<path fill-rule="evenodd" clip-rule="evenodd" d="M42.824 4H64.9995H65.017H87.1924L87.223 7.9538C87.0645 8.01206 86.907 8.06853 86.7495 8.125C85.0401 8.73768 83.3307 9.35036 80.4995 12.25C74.8803 20.3737 79.3397 38.6315 92.9995 59C138.999 126 134.999 178 92.9995 195V202H65.017H64.9995H37.017V195C-4.98297 178 -8.98297 126 37.017 59C50.6768 38.6315 55.1362 20.3737 49.517 12.25C46.6857 9.35036 44.9764 8.73768 43.267 8.125C43.1095 8.06853 42.9519 8.01206 42.7935 7.9538L42.824 4Z"/>
</mask>
<path fill-rule="evenodd" clip-rule="evenodd" d="M42.824 4H64.9995H65.017H87.1924L87.223 7.9538C87.0645 8.01206 86.907 8.06853 86.7495 8.125C85.0401 8.73768 83.3307 9.35036 80.4995 12.25C74.8803 20.3737 79.3397 38.6315 92.9995 59C138.999 126 134.999 178 92.9995 195V202H65.017H64.9995H37.017V195C-4.98297 178 -8.98297 126 37.017 59C50.6768 38.6315 55.1362 20.3737 49.517 12.25C46.6857 9.35036 44.9764 8.73768 43.267 8.125C43.1095 8.06853 42.9519 8.01206 42.7935 7.9538L42.824 4Z" fill="#FFFCEF"/>
<path d="M42.824 4V0C40.6269 0 38.8411 1.7721 38.8242 3.96912L42.824 4ZM87.1924 4L91.1923 3.96912C91.1754 1.7721 89.3895 0 87.1924 0V4ZM87.223 7.9538L88.6035 11.708C90.1879 11.1254 91.2359 9.61091 91.2228 7.92292L87.223 7.9538ZM86.7495 8.125L85.3998 4.35957L85.3998 4.35957L86.7495 8.125ZM80.4995 12.25L77.6375 9.4555C77.4806 9.61619 77.3375 9.78981 77.2097 9.97451L80.4995 12.25ZM92.9995 59L89.6773 61.2279C89.6854 61.24 89.6936 61.252 89.7018 61.264L92.9995 59ZM92.9995 195L91.4987 191.292C89.9881 191.904 88.9995 193.37 88.9995 195H92.9995ZM92.9995 202V206C95.2086 206 96.9995 204.209 96.9995 202H92.9995ZM37.017 202H33.017C33.017 204.209 34.8079 206 37.017 206V202ZM37.017 195H41.017C41.017 193.37 40.0284 191.904 38.5178 191.292L37.017 195ZM37.017 59L40.3146 61.264C40.3229 61.252 40.331 61.24 40.3391 61.2279L37.017 59ZM49.517 12.25L52.8067 9.97451C52.679 9.78981 52.5359 9.61619 52.379 9.4555L49.517 12.25ZM43.267 8.125L44.6167 4.35957L44.6167 4.35957L43.267 8.125ZM42.7935 7.9538L38.7936 7.92292C38.7806 9.61091 39.8286 11.1254 41.4129 11.708L42.7935 7.9538ZM64.9995 0H42.824V8H64.9995V0ZM64.9995 8H65.017V0H64.9995V8ZM65.017 8H87.1924V0H65.017V8ZM83.1926 4.03088L83.2231 7.98468L91.2228 7.92292L91.1923 3.96912L83.1926 4.03088ZM85.8424 4.1996C85.702 4.25125 85.5598 4.30221 85.3998 4.35957L88.0991 11.8904C88.2542 11.8349 88.4271 11.7729 88.6035 11.708L85.8424 4.1996ZM85.3998 4.35957C84.5392 4.66803 83.3584 5.08369 81.9993 5.89271C80.642 6.70058 79.2383 7.81601 77.6375 9.4555L83.3614 15.0445C84.5919 13.7843 85.4585 13.1436 86.0911 12.7671C86.7218 12.3917 87.2503 12.1947 88.0991 11.8904L85.3998 4.35957ZM77.2097 9.97451C73.378 15.5142 73.4452 23.5939 75.6494 32.0429C77.9123 40.7172 82.6733 50.784 89.6773 61.2279L96.3216 56.7721C89.6658 46.8475 85.3672 37.6012 83.3903 30.0235C81.3547 22.2205 82.0018 17.1095 83.7892 14.5255L77.2097 9.97451ZM89.7018 61.264C112.463 94.4161 122.475 123.339 122 145.665C121.532 167.657 110.935 183.425 91.4987 191.292L94.5002 198.708C117.064 189.575 129.466 170.843 129.999 145.835C130.524 121.161 119.536 90.5839 96.2971 56.736L89.7018 61.264ZM88.9995 195V202H96.9995V195H88.9995ZM92.9995 198H65.017V206H92.9995V198ZM65.017 198H64.9995V206H65.017V198ZM37.017 206H64.9995V198H37.017V206ZM33.017 195V202H41.017V195H33.017ZM33.7194 56.736C10.4805 90.5839 -0.507044 121.161 0.0179327 145.835C0.550018 170.843 12.9524 189.575 35.5163 198.708L38.5178 191.292C19.0817 183.425 8.48404 167.657 8.01612 145.665C7.5411 123.339 17.5535 94.4161 40.3146 61.264L33.7194 56.736ZM46.2273 14.5255C48.0147 17.1095 48.6618 22.2205 46.6262 30.0235C44.6493 37.6012 40.3507 46.8475 33.6949 56.7721L40.3391 61.2279C47.3432 50.784 52.1041 40.7172 54.3671 32.0429C56.5713 23.5939 56.6385 15.5141 52.8067 9.97451L46.2273 14.5255ZM41.9174 11.8904C42.7662 12.1947 43.2947 12.3917 43.9254 12.7671C44.558 13.1436 45.4246 13.7843 46.6551 15.0445L52.379 9.4555C50.7781 7.81601 49.3745 6.70058 48.0172 5.89271C46.6581 5.08369 45.4772 4.66803 44.6167 4.35957L41.9174 11.8904ZM41.4129 11.708C41.5893 11.7729 41.7623 11.8349 41.9174 11.8904L44.6167 4.35957C44.4566 4.30221 44.3145 4.25125 44.1741 4.1996L41.4129 11.708ZM38.8242 3.96912L38.7936 7.92292L46.7934 7.98468L46.8239 4.03088L38.8242 3.96912Z" fill="#E0E0E0" mask="url(#path-1-outside-1_1088_18277)"/>
<circle cx="45" cy="116" r="6" fill="#2E2E2E"/>
<circle cx="85" cy="116" r="6" fill="#2E2E2E"/>
<path d="M27.4751 144.06C30.928 148.663 28.9341 152.31 21.4495 159.822L10.9992 147.706C18.7748 142.225 22.9956 139.562 27.4751 144.06Z" fill="#FFFCEF"/>
<path d="M11.0007 147.706C22.6159 140.623 25.1254 141.5 27.4765 144.06C29.8276 146.62 29.6293 150.226 21.1248 159.443" stroke="#E0E0E0" stroke-width="4" stroke-linecap="round"/>
<rect x="108.777" y="130.023" width="6" height="18" transform="rotate(17.1918 108.777 130.023)" fill="#7A7A7A"/>
<circle cx="116.671" cy="114.67" r="19" transform="rotate(62.1919 116.671 114.67)" fill="#BF324B"/>
<rect x="112.84" y="103.122" width="24" height="4" rx="2" transform="rotate(62.1919 112.84 103.122)" fill="#FAFAFA"/>
<rect x="128.219" y="110.84" width="24" height="4" rx="2" transform="rotate(152.192 128.219 110.84)" fill="#FAFAFA"/>
<path d="M102.228 144.06C98.7752 148.663 100.769 152.31 108.254 159.822L118.704 147.706C110.928 142.225 106.708 139.562 102.228 144.06Z" fill="#FFFCEF"/>
<path d="M118.702 147.706C107.087 140.623 104.578 141.5 102.227 144.06C99.8755 146.62 100.074 150.226 108.578 159.443" stroke="#E0E0E0" stroke-width="4" stroke-linecap="round"/>
</svg>
