<svg width="67" height="61" viewBox="0 0 67 61" fill="none" xmlns="http://www.w3.org/2000/svg">
<g id="Subcharacter" clip-path="url(#clip0_2511_11821)">
<path id="Vector" fill-rule="evenodd" clip-rule="evenodd" d="M2 2H26H41H65V19.0004C65 30.0461 56.0457 39 45 39H44V41.223C48.008 42.1325 51 45.7168 51 50V59H41H26H16V50C16 45.7168 18.992 42.1325 23 41.223V39H22C10.9543 39 2 30.0461 2 19.0004V2Z" fill="#E0F4FF"/>
<path id="Vector_2" d="M2 2V0C0.895431 0 0 0.895431 0 2H2ZM65 2H67C67 0.895431 66.1046 0 65 0V2ZM44 39V37C42.8954 37 42 37.8954 42 39H44ZM44 41.223H42C42 42.1571 42.6465 42.9667 43.5574 43.1734L44 41.223ZM51 59V61C52.1046 61 53 60.1046 53 59H51ZM16 59H14C14 60.1046 14.8954 61 16 61V59ZM23 41.223L23.4426 43.1734C24.3535 42.9667 25 42.1571 25 41.223H23ZM23 39H25C25 37.8954 24.1046 37 23 37V39ZM26 0H2V4H26V0ZM26 4H41V0H26V4ZM41 4H65V0H41V4ZM63 2V19.0004H67V2H63ZM63 19.0004C63 28.9415 54.9412 37 45 37V41C57.1502 41 67 31.1507 67 19.0004H63ZM45 37H44V41H45V37ZM42 39V41.223H46V39H42ZM43.5574 43.1734C46.6744 43.8807 49 46.6712 49 50H53C53 44.7625 49.3415 40.3842 44.4426 39.2726L43.5574 43.1734ZM49 50V59H53V50H49ZM51 57H41V61H51V57ZM41 57H26V61H41V57ZM16 61H26V57H16V61ZM14 50V59H18V50H14ZM22.5574 39.2726C17.6585 40.3842 14 44.7625 14 50H18C18 46.6712 20.3256 43.8807 23.4426 43.1734L22.5574 39.2726ZM21 39V41.223H25V39H21ZM22 41H23V37H22V41ZM0 19.0004C0 31.1507 9.84979 41 22 41V37C12.0588 37 4 28.9415 4 19.0004H0ZM0 2V19.0004H4V2H0Z" fill="#E0E0E0"/>
<path id="Vector_3" d="M15 19C16.1046 19 17 18.1046 17 17C17 15.8954 16.1046 15 15 15C13.8954 15 13 15.8954 13 17C13 18.1046 13.8954 19 15 19Z" fill="#2E2E2E"/>
<path id="Vector_4" d="M28 19C29.1046 19 30 18.1046 30 17C30 15.8954 29.1046 15 28 15C26.8954 15 26 15.8954 26 17C26 18.1046 26.8954 19 28 19Z" fill="#2E2E2E"/>
<path id="Vector_5" d="M17 23.6725C17 23.3462 17.3249 23.1159 17.6355 23.216C18.5477 23.51 20.2552 24.0001 21.5 24.0001C22.7448 24.0001 24.4523 23.51 25.3645 23.216C25.6751 23.1159 26 23.3462 26 23.6725C26 23.8693 25.8786 24.0445 25.6922 24.1077C24.9303 24.366 22.9159 25.0001 21.5 25.0001C20.0841 25.0001 18.0697 24.366 17.3078 24.1077C17.1214 24.0445 17 23.8693 17 23.6725Z" fill="#2E2E2E"/>
</g>
<defs>
<clipPath id="clip0_2511_11821">
<rect width="67" height="61" fill="white"/>
</clipPath>
</defs>
</svg>
