<svg width="131" height="206" viewBox="0 0 131 206" fill="none" xmlns="http://www.w3.org/2000/svg">
<g id="Character_search 1" clip-path="url(#clip0_1343_12185)">
<path id="Vector" fill-rule="evenodd" clip-rule="evenodd" d="M42.824 4H64.9995H65.017H87.1924L87.223 7.9538C87.0645 8.01206 86.907 8.06853 86.7495 8.125C85.0401 8.73768 83.3307 9.35036 80.4995 12.25C74.8803 20.3737 79.3397 38.6315 92.9995 59C138.999 126 134.999 178 92.9995 195V202H65.017H64.9995H37.017V195C-4.98296 178 -8.98296 126 37.017 59C50.6768 38.6315 55.1362 20.3737 49.517 12.25C46.6857 9.35036 44.9764 8.73768 43.267 8.125C43.1095 8.06853 42.9519 8.01206 42.7935 7.9538L42.824 4Z" fill="#FFFCEF"/>
<g id="Mask group">
<mask id="mask0_1343_12185" style="mask-type:luminance" maskUnits="userSpaceOnUse" x="0" y="0" width="131" height="206">
<g id="Group">
<path id="Vector_2" d="M131 0H0V206H131V0Z" fill="white"/>
<path id="Vector_3" fill-rule="evenodd" clip-rule="evenodd" d="M42.824 4H64.9995H65.017H87.1924L87.223 7.9538C87.0645 8.01206 86.907 8.06853 86.7495 8.125C85.0401 8.73768 83.3307 9.35036 80.4995 12.25C74.8803 20.3737 79.3397 38.6315 92.9995 59C138.999 126 134.999 178 92.9995 195V202H65.017H64.9995H37.017V195C-4.98296 178 -8.98296 126 37.017 59C50.6768 38.6315 55.1362 20.3737 49.517 12.25C46.6857 9.35036 44.9764 8.73768 43.267 8.125C43.1095 8.06853 42.9519 8.01206 42.7935 7.9538L42.824 4Z" fill="black"/>
</g>
</mask>
<g mask="url(#mask0_1343_12185)">
<path id="Vector_4" d="M42.824 4V0C40.6269 0 38.8411 1.7721 38.8242 3.96912L42.824 4ZM87.1924 4L91.1923 3.96912C91.1754 1.7721 89.3895 0 87.1924 0V4ZM87.223 7.9538L88.6035 11.708C90.1879 11.1254 91.2359 9.61091 91.2228 7.92292L87.223 7.9538ZM80.4995 12.25L77.6375 9.4555C77.4806 9.61619 77.3375 9.78981 77.2097 9.97451L80.4995 12.25ZM92.9995 59L89.6773 61.2279C89.6854 61.24 89.6936 61.252 89.7018 61.264L92.9995 59ZM92.9995 195L91.4987 191.292C89.9881 191.904 88.9995 193.37 88.9995 195H92.9995ZM92.9995 202V206C95.2086 206 96.9995 204.209 96.9995 202H92.9995ZM37.017 202H33.017C33.017 204.209 34.8079 206 37.017 206V202ZM37.017 195H41.017C41.017 193.37 40.0284 191.904 38.5178 191.292L37.017 195ZM37.017 59L40.3146 61.264C40.3229 61.252 40.331 61.24 40.3391 61.2279L37.017 59ZM49.517 12.25L52.8067 9.97451C52.679 9.78981 52.5359 9.61619 52.379 9.4555L49.517 12.25ZM42.7935 7.9538L38.7936 7.92292C38.7806 9.61091 39.8286 11.1254 41.4129 11.708L42.7935 7.9538ZM64.9995 0H42.824V8H64.9995V0ZM64.9995 8H65.017V0H64.9995V8ZM65.017 8H87.1924V0H65.017V8ZM83.1926 4.03088L83.2231 7.98468L91.2228 7.92292L91.1923 3.96912L83.1926 4.03088ZM85.8424 4.1996C85.702 4.25125 85.5598 4.30221 85.3998 4.35957L88.0991 11.8904C88.2542 11.8349 88.4271 11.7729 88.6035 11.708L85.8424 4.1996ZM85.3998 4.35957C84.5392 4.66803 83.3584 5.08369 81.9993 5.89271C80.642 6.70058 79.2383 7.81601 77.6375 9.4555L83.3614 15.0445C84.5919 13.7843 85.4585 13.1436 86.0911 12.7671C86.7218 12.3917 87.2503 12.1947 88.0991 11.8904L85.3998 4.35957ZM77.2097 9.97451C73.378 15.5142 73.4452 23.5939 75.6494 32.0429C77.9123 40.7172 82.6733 50.784 89.6773 61.2279L96.3216 56.7721C89.6658 46.8475 85.3672 37.6012 83.3903 30.0235C81.3547 22.2205 82.0018 17.1095 83.7892 14.5255L77.2097 9.97451ZM89.7018 61.264C112.463 94.4161 122.475 123.339 122 145.665C121.532 167.657 110.935 183.425 91.4987 191.292L94.5002 198.708C117.064 189.575 129.466 170.843 129.999 145.835C130.524 121.161 119.536 90.5839 96.2971 56.736L89.7018 61.264ZM88.9995 195V202H96.9995V195H88.9995ZM92.9995 198H65.017V206H92.9995V198ZM65.017 198H64.9995V206H65.017V198ZM37.017 206H64.9995V198H37.017V206ZM33.017 195V202H41.017V195H33.017ZM33.7194 56.736C10.4805 90.5839 -0.507031 121.161 0.0179456 145.835C0.55003 170.843 12.9524 189.575 35.5163 198.708L38.5178 191.292C19.0817 183.425 8.48405 167.657 8.01613 145.665C7.54111 123.339 17.5535 94.4161 40.3146 61.264L33.7194 56.736ZM46.2273 14.5255C48.0147 17.1095 48.6618 22.2205 46.6262 30.0235C44.6493 37.6012 40.3507 46.8475 33.6949 56.7721L40.3391 61.2279C47.3432 50.784 52.1041 40.7172 54.3671 32.0429C56.5713 23.5939 56.6385 15.5141 52.8067 9.97451L46.2273 14.5255ZM41.9174 11.8904C42.7662 12.1947 43.2947 12.3917 43.9254 12.7671C44.558 13.1436 45.4246 13.7843 46.6551 15.0445L52.379 9.4555C50.7781 7.81601 49.3745 6.70058 48.0172 5.89271C46.6581 5.08369 45.4772 4.66803 44.6167 4.35957L41.9174 11.8904ZM41.4129 11.708C41.5893 11.7729 41.7623 11.8349 41.9174 11.8904L44.6167 4.35957C44.4566 4.30221 44.3145 4.25125 44.1741 4.1996L41.4129 11.708ZM38.8242 3.96912L38.7936 7.92292L46.7934 7.98468L46.8239 4.03088L38.8242 3.96912Z" fill="#E0E0E0"/>
</g>
</g>
<path id="Vector_5" d="M45 122C48.3137 122 51 119.314 51 116C51 112.686 48.3137 110 45 110C41.6863 110 39 112.686 39 116C39 119.314 41.6863 122 45 122Z" fill="#2E2E2E"/>
<path id="Vector_6" d="M86 125C90.9706 125 95 120.971 95 116C95 111.029 90.9706 107 86 107C81.0294 107 77 111.029 77 116C77 120.971 81.0294 125 86 125Z" fill="#2E2E2E"/>
<path id="Vector_7" fill-rule="evenodd" clip-rule="evenodd" d="M98.525 138.848C96.1501 139.596 93.6222 140 91 140C77.1929 140 66 128.807 66 115C66 101.193 77.1929 90 91 90C104.807 90 116 101.193 116 115C116 124.353 110.864 132.506 103.259 136.793L106.891 142.996C107.449 143.949 107.129 145.174 106.176 145.732L105.207 146.3C104.254 146.858 103.029 146.538 102.471 145.585L98.525 138.848ZM111 115C111 126.046 102.046 135 91 135C79.9543 135 71 126.046 71 115C71 103.954 79.9543 95 91 95C102.046 95 111 103.954 111 115Z" fill="#2E2E2E"/>
<path id="Vector_8" d="M27.8547 144.059C31.3076 148.662 29.3137 152.309 21.8291 159.821L11.3789 147.705C19.1545 142.224 23.3752 139.561 27.8547 144.059Z" fill="#FFFCEF"/>
<path id="Vector_9" d="M11.3789 147.705C22.994 140.622 25.5035 141.499 27.8546 144.059C30.2057 146.619 30.0074 150.225 21.5029 159.442" stroke="#E0E0E0" stroke-width="4" stroke-linecap="round"/>
<path id="Vector_10" d="M102.226 144.06C98.7734 148.663 100.767 152.31 108.252 159.822L118.702 147.706C110.926 142.225 106.706 139.562 102.226 144.06Z" fill="#FFFCEF"/>
<path id="Vector_11" d="M118.701 147.706C107.086 140.623 104.577 141.5 102.226 144.06C99.8744 146.62 100.073 150.226 108.577 159.443" stroke="#E0E0E0" stroke-width="4" stroke-linecap="round"/>
</g>
<defs>
<clipPath id="clip0_1343_12185">
<rect width="131" height="206" fill="white"/>
</clipPath>
</defs>
</svg>
