<svg width="80" height="80" viewBox="0 0 80 80" fill="none" xmlns="http://www.w3.org/2000/svg">
<rect width="80" height="80" rx="40" fill="#F6798F"/>
<path fill-rule="evenodd" clip-rule="evenodd" d="M33.382 11.0898H39.8873V11.09H46.3878L46.3967 12.2444C46.3501 12.2615 46.3038 12.278 46.2574 12.2945C45.7563 12.4735 45.2552 12.6524 44.4252 13.4991C42.7779 15.8714 44.0852 21.203 48.0897 27.151H48.0904C61.5755 46.7164 60.4029 61.9014 48.0904 66.8658V68.9098L39.8875 68.9098L39.882 68.9098L31.6791 68.9098V66.8657L39.882 66.8657V66.8656H31.6791C19.3666 61.9013 18.194 46.7163 31.6791 27.1509H31.6789C35.6834 21.2029 36.9907 15.8713 35.3434 13.499C34.5134 12.6523 34.0123 12.4733 33.5111 12.2944C33.4652 12.278 33.4192 12.2616 33.373 12.2447L33.382 11.0898Z" fill="#FFFCEF"/>
<circle cx="34.0531" cy="44.0179" r="1.764" fill="#2E2E2E"/>
<circle cx="45.8148" cy="44.0179" r="1.764" fill="#2E2E2E"/>
<path d="M28.9034 52.2675C29.9185 53.6208 29.3323 54.6931 27.1318 56.9015L24.0595 53.3394C26.3455 51.7279 27.5864 50.9451 28.9034 52.2675Z" fill="#FFFCEF"/>
<path d="M24.0588 53.3394C27.4736 51.257 28.2114 51.5149 28.9026 52.2675C29.5939 53.0201 29.5356 54.0803 27.0352 56.7901" stroke="#E0E0E0" stroke-width="0.882" stroke-linecap="round"/>
<path d="M50.8779 52.2675C49.8627 53.6208 50.4489 54.6931 52.6494 56.9015L55.7218 53.3394C53.4358 51.7279 52.1949 50.9451 50.8779 52.2675Z" fill="#FFFCEF"/>
<path d="M55.7225 53.3394C52.3076 51.257 51.5698 51.5149 50.8786 52.2675C50.1874 53.0201 50.2457 54.0803 52.746 56.7901" stroke="#E0E0E0" stroke-width="0.882" stroke-linecap="round"/>
</svg>
