<svg width="18" height="18" viewBox="0 0 18 18" fill="none" xmlns="http://www.w3.org/2000/svg">
<g id="Icon/heart">
<path id="Vector" d="M15.6306 3.4574C15.2475 3.07416 14.7927 2.77014 14.2921 2.56272C13.7915 2.3553 13.2549 2.24854 12.7131 2.24854C12.1712 2.24854 11.6347 2.3553 11.1341 2.56272C10.6335 2.77014 10.1786 3.07416 9.79558 3.4574L9.00058 4.2524L8.20558 3.4574C7.43181 2.68364 6.38235 2.24894 5.28808 2.24894C4.1938 2.24894 3.14435 2.68364 2.37058 3.4574C1.59681 4.23117 1.16211 5.28063 1.16211 6.3749C1.16211 7.46918 1.59681 8.51864 2.37058 9.2924L3.16558 10.0874L9.00058 15.9224L14.8356 10.0874L15.6306 9.2924C16.0138 8.90934 16.3178 8.45451 16.5253 7.95392C16.7327 7.45333 16.8394 6.91677 16.8394 6.3749C16.8394 5.83304 16.7327 5.29648 16.5253 4.79589C16.3178 4.29529 16.0138 3.84047 15.6306 3.4574V3.4574Z" stroke="#2E2E2E" stroke-width="1.5" stroke-linecap="round" stroke-linejoin="round"/>
</g>
</svg>
