<svg width="40" height="40" viewBox="0 0 40 40" fill="none" xmlns="http://www.w3.org/2000/svg">
<path d="M28.8382 12.6101C28.3274 12.0991 27.721 11.6938 27.0535 11.4172C26.3861 11.1406 25.6707 10.9983 24.9482 10.9983C24.2257 10.9983 23.5103 11.1406 22.8428 11.4172C22.1754 11.6938 21.5689 12.0991 21.0582 12.6101L19.9982 13.6701L18.9382 12.6101C17.9065 11.5784 16.5072 10.9988 15.0482 10.9988C13.5891 10.9988 12.1899 11.5784 11.1582 12.6101C10.1265 13.6418 9.54688 15.0411 9.54688 16.5001C9.54687 17.9591 10.1265 19.3584 11.1582 20.3901L12.2182 21.4501L19.9982 29.2301L27.7782 21.4501L28.8382 20.3901C29.3492 19.8794 29.7545 19.2729 30.0311 18.6055C30.3076 17.938 30.45 17.2226 30.45 16.5001C30.45 15.7776 30.3076 15.0622 30.0311 14.3948C29.7545 13.7273 29.3492 13.1209 28.8382 12.6101Z" fill="#BF324B" stroke="#BF324B" stroke-width="2" stroke-linecap="round" stroke-linejoin="round"/>
</svg>
