<svg width="25" height="24" viewBox="0 0 25 24" fill="none" xmlns="http://www.w3.org/2000/svg">
<g clip-path="url(#clip0_1169_1519)">
<path d="M21.2151 4.60999C20.7044 4.099 20.0979 3.69364 19.4305 3.41708C18.763 3.14052 18.0476 2.99817 17.3251 2.99817C16.6026 2.99817 15.8872 3.14052 15.2198 3.41708C14.5523 3.69364 13.9459 4.099 13.4351 4.60999L12.3751 5.66999L11.3151 4.60999C10.2834 3.5783 8.88415 2.9987 7.42512 2.9987C5.96609 2.9987 4.56681 3.5783 3.53512 4.60999C2.50343 5.64169 1.92383 7.04096 1.92383 8.49999C1.92383 9.95903 2.50343 11.3583 3.53512 12.39L4.59512 13.45L12.3751 21.23L20.1551 13.45L21.2151 12.39C21.7261 11.8792 22.1315 11.2728 22.408 10.6053C22.6846 9.93789 22.8269 9.22248 22.8269 8.49999C22.8269 7.77751 22.6846 7.0621 22.408 6.39464C22.1315 5.72718 21.7261 5.12075 21.2151 4.60999V4.60999Z" stroke="#BF324B" stroke-width="2" stroke-linecap="round" stroke-linejoin="round"/>
</g>
<defs>
<clipPath id="clip0_1169_1519">
<rect width="24" height="24" fill="white" transform="translate(0.375)"/>
</clipPath>
</defs>
</svg>
