<svg width="164" height="164" viewBox="0 0 164 164" fill="none" xmlns="http://www.w3.org/2000/svg">
<g id="Icon/heart">
<path id="Vector" d="M142.407 31.5024C138.917 28.0106 134.773 25.2407 130.212 23.3508C125.651 21.461 120.762 20.4883 115.825 20.4883C110.888 20.4883 106 21.461 101.439 23.3508C96.8776 25.2407 92.7337 28.0106 89.2435 31.5024L82.0002 38.7458L74.7568 31.5024C67.7069 24.4525 58.1452 20.4919 48.1752 20.4919C38.2051 20.4919 28.6434 24.4525 21.5935 31.5024C14.5436 38.5523 10.583 48.114 10.583 58.0841C10.583 68.0541 14.5436 77.6159 21.5935 84.6658L28.8368 91.9091L82.0002 145.072L135.163 91.9091L142.407 84.6658C145.899 81.1756 148.669 77.0316 150.558 72.4707C152.448 67.9097 153.421 63.0211 153.421 58.0841C153.421 53.1471 152.448 48.2585 150.558 43.6975C148.669 39.1365 145.899 34.9926 142.407 31.5024V31.5024Z" fill="#DF98A5"/>
</g>
</svg>
