<svg width="116" height="30" viewBox="0 0 116 30" fill="none" xmlns="http://www.w3.org/2000/svg">
<g clip-path="url(#clip0_1343_11761)">
<rect y="0.419922" width="29.16" height="29.16" rx="14.58" fill="url(#paint0_linear_1343_11761)"/>
<path fill-rule="evenodd" clip-rule="evenodd" d="M10.1618 3.82129H14.5816V3.82151H18.9983L19.0044 4.5902C18.973 4.60147 18.9418 4.61241 18.9105 4.62334L18.9103 4.62341L18.9103 4.62341C18.5699 4.74252 18.2294 4.86162 17.6656 5.42531C16.5465 7.00456 17.4346 10.5539 20.155 14.5135H20.1547C29.3157 27.5383 28.519 37.647 20.1546 40.9518V42.3126H14.5814V42.3126H9.00514V40.9519C0.640698 37.6471 -0.155916 27.5383 9.00514 14.5135H14.5783V14.5134H14.5787V14.5133H9.00526C11.7256 10.5537 12.6138 7.00434 11.4947 5.42509C10.9308 4.8614 10.5904 4.74229 10.25 4.62319L10.2499 4.62318C10.2186 4.61221 10.1872 4.60125 10.1557 4.58993L10.1618 3.82129Z" fill="#FFFCEF"/>
<circle cx="10.7461" cy="24.6782" r="1.25" fill="#2E2E2E"/>
<circle cx="18.2578" cy="24.6782" r="1.25" fill="#2E2E2E"/>
</g>
<path d="M58.7922 24.428V29.388H35.4002V21.996H41.0002V24.428H58.7922ZM42.6962 21.324C41.5228 21.324 40.4455 21.26 39.4642 21.132C38.4828 20.9827 37.6402 20.7267 36.9362 20.364C36.2322 19.98 35.6775 19.468 35.2722 18.828C34.8882 18.188 34.6962 17.3773 34.6962 16.396C34.6962 14.668 35.3788 13.42 36.7442 12.652C38.1095 11.884 40.0935 11.5 42.6962 11.5C45.2988 11.5 47.2828 11.884 48.6482 12.652C50.0135 13.42 50.6962 14.668 50.6962 16.396C50.6962 17.3773 50.4935 18.188 50.0882 18.828C49.7042 19.468 49.1602 19.98 48.4562 20.364C47.7522 20.7267 46.9095 20.9827 45.9282 21.132C44.9468 21.26 43.8695 21.324 42.6962 21.324ZM61.0002 8.524V13.644H58.5682V22.188H52.9682V1.324H58.5682V8.524H61.0002ZM36.6482 0.363998C36.9895 0.555998 37.3948 0.726665 37.8642 0.875999C38.3548 1.004 38.8668 1.11067 39.4002 1.196C39.9335 1.26 40.4668 1.31333 41.0002 1.356C41.5548 1.39867 42.0562 1.42 42.5042 1.42H49.8962V5.42H41.2882C40.0295 5.42 38.8562 5.324 37.7682 5.132C36.6802 4.94 35.7735 4.62 35.0482 4.172L36.6482 0.363998ZM51.1122 10.7H34.3122V6.22H51.1122V10.7ZM42.6962 17.324C43.8695 17.324 44.6908 17.2493 45.1602 17.1C45.6508 16.9293 45.8962 16.6947 45.8962 16.396C45.8962 16.1187 45.6508 15.9053 45.1602 15.756C44.6695 15.5853 43.8482 15.5 42.6962 15.5C41.5442 15.5 40.7228 15.5853 40.2322 15.756C39.7415 15.9053 39.4962 16.1187 39.4962 16.396C39.4962 16.6947 39.7308 16.9293 40.2002 17.1C40.6908 17.2493 41.5228 17.324 42.6962 17.324ZM88.8439 8.044V13.164H86.4119V21.708H80.6519V1.324H86.4119V8.044H88.8439ZM78.9559 7.084H73.7719V9.228C73.7719 9.88933 73.8786 10.4653 74.0919 10.956C74.3052 11.4467 74.6466 11.8947 75.1159 12.3C75.5852 12.7053 76.1932 13.0787 76.9399 13.42C77.7079 13.7613 78.6359 14.1133 79.7239 14.476L78.4759 19.372C76.7692 19.0093 75.2652 18.572 73.9639 18.06C72.6626 17.5267 71.6386 16.9507 70.8919 16.332C70.2092 16.9293 69.1319 17.548 67.6599 18.188C66.1879 18.828 64.5026 19.3507 62.6039 19.756L61.6119 14.7C62.8066 14.2947 63.7986 13.9107 64.5879 13.548C65.3772 13.1853 66.0066 12.812 66.4759 12.428C66.9666 12.0227 67.3079 11.5853 67.4999 11.116C67.7132 10.6467 67.8199 10.1133 67.8199 9.516V7.084H62.3159V1.964H78.9559V7.084ZM86.6359 24.268V29.388H63.2439V20.396H68.8439V24.268H86.6359ZM96.4957 28.684C95.5783 28.684 94.7357 28.5773 93.9677 28.364C93.1997 28.1507 92.5383 27.7453 91.9837 27.148C91.4503 26.5507 91.0343 25.708 90.7357 24.62C90.437 23.5107 90.2877 22.0813 90.2877 20.332C90.2877 18.6253 90.4263 17.2387 90.7037 16.172C90.981 15.084 91.3757 14.2307 91.8877 13.612C92.421 12.9933 93.0717 12.5667 93.8397 12.332C94.629 12.0973 95.5143 11.98 96.4957 11.98C97.4983 11.98 98.3837 12.0973 99.1517 12.332C99.9197 12.5667 100.56 12.9933 101.072 13.612C101.605 14.2307 102.01 15.084 102.288 16.172C102.565 17.2387 102.704 18.6253 102.704 20.332C102.704 22.0813 102.554 23.5107 102.256 24.62C101.957 25.708 101.53 26.5507 100.976 27.148C100.442 27.7453 99.7917 28.1507 99.0237 28.364C98.277 28.5773 97.4343 28.684 96.4957 28.684ZM109.168 17.996V28.908H104.048V1.484H109.168V12.876H110.576V1.324H115.696V29.068H110.576V17.996H109.168ZM92.1437 0.331999C92.8263 0.694666 93.573 0.982666 94.3837 1.196C95.2157 1.388 96.1543 1.484 97.1997 1.484H102.256V5.964H95.9837C94.7677 5.964 93.7437 5.85733 92.9117 5.644C92.0797 5.40933 91.2903 5.068 90.5437 4.62L92.1437 0.331999ZM102.992 6.828V11.308H89.9997V6.828H102.992ZM96.4957 24.204C96.709 24.204 96.9117 24.1613 97.1037 24.076C97.2957 23.9693 97.4557 23.788 97.5837 23.532C97.733 23.2547 97.8503 22.86 97.9357 22.348C98.021 21.836 98.0637 21.164 98.0637 20.332C98.0637 19.5 98.021 18.828 97.9357 18.316C97.8717 17.804 97.7757 17.42 97.6477 17.164C97.5197 16.8867 97.3597 16.7053 97.1677 16.62C96.9757 16.5133 96.7517 16.46 96.4957 16.46C96.2397 16.46 96.0157 16.5133 95.8237 16.62C95.6317 16.7053 95.4717 16.8867 95.3437 17.164C95.2157 17.42 95.1197 17.804 95.0557 18.316C94.9917 18.828 94.9597 19.5 94.9597 20.332C94.9597 21.164 95.0023 21.836 95.0877 22.348C95.173 22.86 95.2797 23.2547 95.4077 23.532C95.557 23.788 95.7277 23.9693 95.9197 24.076C96.1117 24.1613 96.3037 24.204 96.4957 24.204Z" fill="url(#paint1_linear_1343_11761)"/>
<defs>
<linearGradient id="paint0_linear_1343_11761" x1="14.58" y1="0.419922" x2="14.58" y2="29.5799" gradientUnits="userSpaceOnUse">
<stop stop-color="#BF324B"/>
<stop offset="1" stop-color="#F99FAF"/>
</linearGradient>
<linearGradient id="paint1_linear_1343_11761" x1="34.6602" y1="14.5" x2="106.66" y2="14.5" gradientUnits="userSpaceOnUse">
<stop stop-color="#BF324B"/>
<stop offset="1" stop-color="#F99FAF"/>
</linearGradient>
<clipPath id="clip0_1343_11761">
<rect y="0.419922" width="29.16" height="29.16" rx="14.58" fill="white"/>
</clipPath>
</defs>
</svg>
