<svg width="58" height="60" viewBox="0 0 58 60" fill="none" xmlns="http://www.w3.org/2000/svg">
<rect y="9.05273" width="46" height="63.5" rx="4" transform="rotate(-8.08904 0 9.05273)" fill="#E0F4FF"/>
<rect x="11.2383" y="0.000488281" width="46" height="63.5" rx="4" fill="#FCD9DF"/>
<rect x="17.2383" y="8.00049" width="8" height="8" rx="1" fill="#FAFAFA"/>
<rect x="17.2383" y="21.0005" width="8" height="8" rx="1" fill="#FAFAFA"/>
<rect x="17.2383" y="34.0005" width="8" height="8" rx="1" fill="#FAFAFA"/>
<rect x="17.2383" y="47.0005" width="8" height="8" rx="1" fill="#FAFAFA"/>
<rect x="27.7383" y="8.00049" width="23.5" height="3" rx="1" fill="#FAFAFA"/>
<rect x="27.7383" y="21.0005" width="23.5" height="3" rx="1" fill="#FAFAFA"/>
<rect x="27.7383" y="34.0005" width="23.5" height="3" rx="1" fill="#FAFAFA"/>
<rect x="27.7383" y="47.0005" width="23.5" height="3" rx="1" fill="#FAFAFA"/>
<rect x="27.7383" y="13.0005" width="23.5" height="3" rx="1" fill="#FAFAFA"/>
<rect x="27.7383" y="26.0005" width="23.5" height="3" rx="1" fill="#FAFAFA"/>
<rect x="27.7383" y="39.0005" width="23.5" height="3" rx="1" fill="#FAFAFA"/>
<rect x="27.7383" y="52.0005" width="23.5" height="3" rx="1" fill="#FAFAFA"/>
</svg>
