<svg width="48" height="48" viewBox="0 0 48 48" fill="none" xmlns="http://www.w3.org/2000/svg">
<path fill-rule="evenodd" clip-rule="evenodd" d="M37.0625 12H27.1113H20.8944H10.9433V19.1085C10.9433 23.7867 14.7357 27.5789 19.4139 27.5789H19.6492V28.5303C17.9833 28.9383 16.7472 30.4412 16.7472 32.2328V36H20.8944H27.1113H31.2586V32.2328C31.2586 30.4412 30.0225 28.9383 28.3566 28.5303V27.5789H28.5919C33.2701 27.5789 37.0625 23.7867 37.0625 19.1085V12Z" fill="#E0F4FF"/>
<circle cx="0.847059" cy="0.847059" r="0.847059" transform="matrix(-1 0 0 1 32.4023 17.5059)" fill="#2E2E2E"/>
<circle cx="0.847059" cy="0.847059" r="0.847059" transform="matrix(-1 0 0 1 26.8945 17.5059)" fill="#2E2E2E"/>
<path d="M30.707 21.1788C30.707 21.0406 30.5694 20.9431 30.4379 20.9855C30.0515 21.11 29.3284 21.3176 28.8011 21.3176C28.2739 21.3176 27.5508 21.11 27.1644 20.9855C27.0329 20.9431 26.8953 21.0406 26.8953 21.1788V21.1788C26.8953 21.2622 26.9467 21.3364 27.0256 21.3631C27.3483 21.4725 28.2015 21.7411 28.8011 21.7411C29.4008 21.7411 30.254 21.4725 30.5767 21.3631C30.6556 21.3364 30.707 21.2622 30.707 21.1788V21.1788Z" fill="#2E2E2E"/>
</svg>
