<svg width="335" height="72" viewBox="0 0 335 72" fill="none" xmlns="http://www.w3.org/2000/svg">
<g clip-path="url(#clip0_1181_7678)">
<rect width="335" height="72" rx="12" fill="url(#paint0_linear_1181_7678)"/>
<path fill-rule="evenodd" clip-rule="evenodd" d="M37.0625 24H27.1113H20.8944H10.9433V31.1085C10.9433 35.7867 14.7357 39.5789 19.4139 39.5789H19.6492V40.5303C17.9833 40.9383 16.7472 42.4412 16.7472 44.2328V48H20.8944H27.1113H31.2586V44.2328C31.2586 42.4412 30.0225 40.9383 28.3566 40.5303V39.5789H28.5919C33.2701 39.5789 37.0625 35.7867 37.0625 31.1085V24Z" fill="#E0F4FF"/>
<circle cx="0.847059" cy="0.847059" r="0.847059" transform="matrix(-1 0 0 1 32.4023 29.5059)" fill="#2E2E2E"/>
<circle cx="0.847059" cy="0.847059" r="0.847059" transform="matrix(-1 0 0 1 26.8945 29.5059)" fill="#2E2E2E"/>
<path d="M30.707 33.1788C30.707 33.0406 30.5694 32.9431 30.4379 32.9855C30.0515 33.11 29.3284 33.3176 28.8011 33.3176C28.2739 33.3176 27.5508 33.11 27.1644 32.9855C27.0329 32.9431 26.8953 33.0406 26.8953 33.1788C26.8953 33.2622 26.9467 33.3364 27.0256 33.3631C27.3483 33.4725 28.2015 33.7411 28.8011 33.7411C29.4008 33.7411 30.254 33.4725 30.5767 33.3631C30.6556 33.3364 30.707 33.2622 30.707 33.1788Z" fill="#2E2E2E"/>
<path d="M76.5 29.3281V43.3281H75.0781V36.1562H73.2812V42.6094H71.8906V29.6094H73.2812V34.9375H75.0781V29.3281H76.5ZM66.6562 30.9844V38.4531C67.9531 38.4453 69.3672 38.3438 70.9531 38.0312L71.1094 39.3281C69.1875 39.6719 67.5781 39.7656 66.0781 39.7656H65.1719V30.9844H66.6562ZM87.6562 32.0312C87.6562 33.3594 88.9062 34.5 90.9531 34.9375L90.3438 36.0938C88.7344 35.7344 87.5547 34.9297 86.9375 33.8594C86.3359 35.0234 85.1328 35.8984 83.4688 36.2812L82.8438 35.125C84.9062 34.6875 86.1719 33.4219 86.1719 32.0312H83.1562V30.8594H86.1719V29.3594H87.6562V30.8594H90.6562V32.0312H87.6562ZM93.8906 29.3438V43.3281H92.4219V29.3438H93.8906ZM82.2344 37.1406C84.8906 37.1406 88.4062 37.125 91.4531 36.7344L91.5625 37.8125C90.2812 38.0234 88.9609 38.1562 87.6719 38.2344V42.9062H86.1875V38.3125C84.8438 38.3672 83.5625 38.375 82.4375 38.375L82.2344 37.1406ZM109.062 31.6406V32.8594H107.078V34.625H109.062V35.8438H107.078V38.3125H105.594V29.3281H107.078V31.6406H109.062ZM102.609 38.4219C105.469 38.4219 107.234 39.3281 107.234 40.875C107.234 42.3906 105.469 43.3125 102.609 43.2969C99.7188 43.3125 97.9531 42.3906 97.9688 40.875C97.9531 39.3281 99.7188 38.4219 102.609 38.4219ZM102.609 39.5625C100.594 39.5625 99.4219 40.0156 99.4375 40.875C99.4219 41.6875 100.594 42.1719 102.609 42.1719C104.594 42.1719 105.766 41.6875 105.766 40.875C105.766 40.0156 104.594 39.5625 102.609 39.5625ZM104.438 30.8281V32H96.0938V30.8281H99.5312V29.2188H101.016V30.8281H104.438ZM100.266 32.6406C102.281 32.6406 103.656 33.6406 103.656 35.1406C103.656 36.6406 102.281 37.625 100.266 37.6094C98.2188 37.625 96.8594 36.6406 96.8594 35.1406C96.8594 33.6406 98.2188 32.6406 100.266 32.6406ZM100.266 33.75C99.0781 33.75 98.2812 34.2812 98.2969 35.1406C98.2812 35.9688 99.0781 36.4844 100.266 36.4844C101.453 36.4844 102.25 35.9688 102.266 35.1406C102.25 34.2812 101.453 33.75 100.266 33.75ZM125.484 29.3281V37.6562H124V34.1094H121.391V32.8906H124V29.3281H125.484ZM120.797 38.0469C123.734 38.0469 125.531 39.0156 125.531 40.6875C125.531 42.3594 123.734 43.3125 120.797 43.3281C117.859 43.3125 116.047 42.3594 116.062 40.6875C116.047 39.0156 117.859 38.0469 120.797 38.0469ZM120.797 39.2031C118.75 39.2031 117.531 39.7344 117.531 40.6875C117.531 41.625 118.75 42.1719 120.797 42.1562C122.844 42.1719 124.062 41.625 124.062 40.6875C124.062 39.7344 122.844 39.2031 120.797 39.2031ZM118.828 31.7969C118.828 33.5781 120.094 35.2969 122.203 36.0156L121.438 37.1875C119.867 36.6406 118.711 35.5234 118.109 34.1406C117.492 35.7109 116.266 36.9688 114.594 37.5781L113.812 36.3906C115.984 35.6406 117.312 33.75 117.312 31.8125V31.5H114.281V30.2969H121.828V31.5H118.828V31.7969ZM140.453 40.3594V41.5938H127.641V40.3594H133.281V37.4844H129.109V30.2812H130.594V32.6875H137.469V30.2812H138.938V37.4844H134.75V40.3594H140.453ZM130.594 36.2812H137.469V33.8906H130.594V36.2812ZM152.547 30.5625C152.531 32.4219 154.812 34.1719 157.562 34.5312L156.984 35.75C154.695 35.3828 152.68 34.1953 151.781 32.5469C150.859 34.2031 148.852 35.3828 146.578 35.75L145.984 34.5312C148.734 34.1719 150.984 32.4375 151 30.5625V29.7969H152.547V30.5625ZM158.141 37.125V38.3438H152.453V43.3281H151V38.3438H145.375V37.125H158.141ZM170.875 29.3281V37.6562H169.391V34.1094H166.781V32.8906H169.391V29.3281H170.875ZM166.188 38.0469C169.125 38.0469 170.922 39.0156 170.922 40.6875C170.922 42.3594 169.125 43.3125 166.188 43.3281C163.25 43.3125 161.438 42.3594 161.453 40.6875C161.438 39.0156 163.25 38.0469 166.188 38.0469ZM166.188 39.2031C164.141 39.2031 162.922 39.7344 162.922 40.6875C162.922 41.625 164.141 42.1719 166.188 42.1562C168.234 42.1719 169.453 41.625 169.453 40.6875C169.453 39.7344 168.234 39.2031 166.188 39.2031ZM164.219 31.7969C164.219 33.5781 165.484 35.2969 167.594 36.0156L166.828 37.1875C165.258 36.6406 164.102 35.5234 163.5 34.1406C162.883 35.7109 161.656 36.9688 159.984 37.5781L159.203 36.3906C161.375 35.6406 162.703 33.75 162.703 31.8125V31.5H159.672V30.2969H167.219V31.5H164.219V31.7969Z" fill="white"/>
<rect x="266" y="21.0527" width="46" height="63.5" rx="4" transform="rotate(-8.08904 266 21.0527)" fill="#E0F4FF"/>
<rect x="277.238" y="12.0005" width="46" height="63.5" rx="4" fill="#FCD9DF"/>
<rect x="283.238" y="20.0005" width="8" height="8" rx="1" fill="#FAFAFA"/>
<rect x="283.238" y="33.0005" width="8" height="8" rx="1" fill="#FAFAFA"/>
<rect x="283.238" y="46.0005" width="8" height="8" rx="1" fill="#FAFAFA"/>
<rect x="283.238" y="59.0005" width="8" height="8" rx="1" fill="#FAFAFA"/>
<rect x="293.738" y="20.0005" width="23.5" height="3" rx="1" fill="#FAFAFA"/>
<rect x="293.738" y="33.0005" width="23.5" height="3" rx="1" fill="#FAFAFA"/>
<rect x="293.738" y="46.0005" width="23.5" height="3" rx="1" fill="#FAFAFA"/>
<rect x="293.738" y="59.0005" width="23.5" height="3" rx="1" fill="#FAFAFA"/>
<rect x="293.738" y="25.0005" width="23.5" height="3" rx="1" fill="#FAFAFA"/>
<rect x="293.738" y="38.0005" width="23.5" height="3" rx="1" fill="#FAFAFA"/>
<rect x="293.738" y="51.0005" width="23.5" height="3" rx="1" fill="#FAFAFA"/>
<rect x="293.738" y="64.0005" width="23.5" height="3" rx="1" fill="#FAFAFA"/>
</g>
<defs>
<linearGradient id="paint0_linear_1181_7678" x1="63" y1="20" x2="314" y2="141" gradientUnits="userSpaceOnUse">
<stop stop-color="#BF324B"/>
<stop offset="1" stop-color="#F495A6"/>
</linearGradient>
<clipPath id="clip0_1181_7678">
<rect width="335" height="72" rx="12" fill="white"/>
</clipPath>
</defs>
</svg>
