<svg width="41" height="40" viewBox="0 0 41 40" fill="none" xmlns="http://www.w3.org/2000/svg">
<rect x="0.5" width="40" height="40" rx="8" fill="#BF324B"/>
<g clip-path="url(#clip0_1167_5920)">
<path d="M19.0557 14.3137L21.1771 12.1924C21.6414 11.7281 22.1926 11.3598 22.7992 11.1085C23.4058 10.8572 24.056 10.7279 24.7126 10.7279C25.3692 10.7279 26.0194 10.8572 26.626 11.1085C27.2326 11.3598 27.7838 11.7281 28.2481 12.1924C28.7124 12.6567 29.0807 13.2079 29.332 13.8145C29.5833 14.4211 29.7126 15.0713 29.7126 15.7279C29.7126 16.3845 29.5833 17.0347 29.332 17.6413C29.0807 18.248 28.7124 18.7992 28.2481 19.2634L26.1268 21.3848M21.8842 25.6274L19.7629 27.7487C19.2986 28.213 18.7474 28.5813 18.1407 28.8326C17.5341 29.0839 16.8839 29.2132 16.2273 29.2132C14.9012 29.2132 13.6295 28.6864 12.6918 27.7487C11.7541 26.811 11.2273 25.5393 11.2273 24.2132C11.2273 22.8871 11.7541 21.6153 12.6918 20.6777L14.8131 18.5563" stroke="#FAFAFA" stroke-width="2" stroke-linecap="round" stroke-linejoin="round"/>
<path d="M17.6426 22.799L23.2994 17.1422" stroke="#FAFAFA" stroke-width="2" stroke-linecap="round" stroke-linejoin="round"/>
</g>
<defs>
<clipPath id="clip0_1167_5920">
<rect width="24" height="24" fill="white" transform="translate(3.5 19.9706) rotate(-45)"/>
</clipPath>
</defs>
</svg>
