<svg width="21" height="20" viewBox="0 0 21 20" fill="none" xmlns="http://www.w3.org/2000/svg">
<g id="Icon/sliders-v-alt">
<path id="Vector" d="M17.1679 6.81675V2.50008C17.1679 2.27907 17.0801 2.06711 16.9238 1.91083C16.7675 1.75455 16.5556 1.66675 16.3346 1.66675C16.1136 1.66675 15.9016 1.75455 15.7453 1.91083C15.589 2.06711 15.5012 2.27907 15.5012 2.50008V6.81675C15.0186 6.99192 14.6016 7.31144 14.3069 7.73189C14.0122 8.15233 13.8542 8.65332 13.8542 9.16675C13.8542 9.68018 14.0122 10.1812 14.3069 10.6016C14.6016 11.0221 15.0186 11.3416 15.5012 11.5167V17.5001C15.5012 17.7211 15.589 17.9331 15.7453 18.0893C15.9016 18.2456 16.1136 18.3334 16.3346 18.3334C16.5556 18.3334 16.7675 18.2456 16.9238 18.0893C17.0801 17.9331 17.1679 17.7211 17.1679 17.5001V11.5167C17.6505 11.3416 18.0675 11.0221 18.3622 10.6016C18.6569 10.1812 18.815 9.68018 18.815 9.16675C18.815 8.65332 18.6569 8.15233 18.3622 7.73189C18.0675 7.31144 17.6505 6.99192 17.1679 6.81675ZM16.3346 10.0001C16.1697 10.0001 16.0086 9.95121 15.8716 9.85964C15.7345 9.76807 15.6277 9.63792 15.5647 9.48565C15.5016 9.33338 15.4851 9.16582 15.5172 9.00417C15.5494 8.84252 15.6288 8.69404 15.7453 8.57749C15.8619 8.46095 16.0103 8.38158 16.172 8.34943C16.3336 8.31727 16.5012 8.33378 16.6535 8.39685C16.8057 8.45992 16.9359 8.56673 17.0275 8.70377C17.119 8.84081 17.1679 9.00193 17.1679 9.16675C17.1679 9.38776 17.0801 9.59972 16.9238 9.756C16.7675 9.91228 16.5556 10.0001 16.3346 10.0001ZM11.3346 11.8167V2.50008C11.3346 2.27907 11.2468 2.06711 11.0905 1.91083C10.9342 1.75455 10.7222 1.66675 10.5012 1.66675C10.2802 1.66675 10.0683 1.75455 9.91197 1.91083C9.75569 2.06711 9.6679 2.27907 9.6679 2.50008V11.8167C9.18527 11.9919 8.76828 12.3114 8.4736 12.7319C8.17892 13.1523 8.02083 13.6533 8.02083 14.1667C8.02083 14.6802 8.17892 15.1812 8.4736 15.6016C8.76828 16.0221 9.18527 16.3416 9.6679 16.5167V17.5001C9.6679 17.7211 9.75569 17.9331 9.91197 18.0893C10.0683 18.2456 10.2802 18.3334 10.5012 18.3334C10.7222 18.3334 10.9342 18.2456 11.0905 18.0893C11.2468 17.9331 11.3346 17.7211 11.3346 17.5001V16.5167C11.8172 16.3416 12.2342 16.0221 12.5289 15.6016C12.8235 15.1812 12.9816 14.6802 12.9816 14.1667C12.9816 13.6533 12.8235 13.1523 12.5289 12.7319C12.2342 12.3114 11.8172 11.9919 11.3346 11.8167ZM10.5012 15.0001C10.3364 15.0001 10.1753 14.9512 10.0383 14.8596C9.90121 14.7681 9.7944 14.6379 9.73133 14.4857C9.66826 14.3334 9.65175 14.1658 9.68391 14.0042C9.71606 13.8425 9.79543 13.694 9.91197 13.5775C10.0285 13.4609 10.177 13.3816 10.3387 13.3494C10.5003 13.3173 10.6679 13.3338 10.8201 13.3968C10.9724 13.4599 11.1026 13.5667 11.1941 13.7038C11.2857 13.8408 11.3346 14.0019 11.3346 14.1667C11.3346 14.3878 11.2468 14.5997 11.0905 14.756C10.9342 14.9123 10.7222 15.0001 10.5012 15.0001ZM5.50123 5.15008V2.50008C5.50123 2.27907 5.41343 2.06711 5.25715 1.91083C5.10087 1.75455 4.88891 1.66675 4.6679 1.66675C4.44688 1.66675 4.23492 1.75455 4.07864 1.91083C3.92236 2.06711 3.83456 2.27907 3.83456 2.50008V5.15008C3.35194 5.32525 2.93495 5.64477 2.64027 6.06522C2.34558 6.48567 2.1875 6.98665 2.1875 7.50008C2.1875 8.01351 2.34558 8.5145 2.64027 8.93494C2.93495 9.35539 3.35194 9.67491 3.83456 9.85008V17.5001C3.83456 17.7211 3.92236 17.9331 4.07864 18.0893C4.23492 18.2456 4.44688 18.3334 4.6679 18.3334C4.88891 18.3334 5.10087 18.2456 5.25715 18.0893C5.41343 17.9331 5.50123 17.7211 5.50123 17.5001V9.85008C5.98386 9.67491 6.40085 9.35539 6.69553 8.93494C6.99021 8.5145 7.14829 8.01351 7.14829 7.50008C7.14829 6.98665 6.99021 6.48567 6.69553 6.06522C6.40085 5.64477 5.98386 5.32525 5.50123 5.15008ZM4.6679 8.33341C4.50308 8.33341 4.34196 8.28454 4.20492 8.19297C4.06788 8.1014 3.96107 7.97126 3.898 7.81898C3.83492 7.66671 3.81842 7.49916 3.85058 7.33751C3.88273 7.17586 3.9621 7.02737 4.07864 6.91083C4.19519 6.79428 4.34367 6.71491 4.50532 6.68276C4.66697 6.65061 4.83453 6.66711 4.9868 6.73018C5.13907 6.79325 5.26922 6.90006 5.36079 7.03711C5.45236 7.17415 5.50123 7.33526 5.50123 7.50008C5.50123 7.7211 5.41343 7.93306 5.25715 8.08934C5.10087 8.24562 4.88891 8.33341 4.6679 8.33341Z" fill="#2E2E2E"/>
</g>
</svg>
