<svg width="20" height="20" viewBox="0 0 20 20" fill="none" xmlns="http://www.w3.org/2000/svg">
<g id="Icon/sliders-v-alt">
<path id="Vector" d="M16.6679 6.81663V2.49996C16.6679 2.27895 16.5801 2.06698 16.4238 1.9107C16.2675 1.75442 16.0556 1.66663 15.8346 1.66663C15.6136 1.66663 15.4016 1.75442 15.2453 1.9107C15.089 2.06698 15.0012 2.27895 15.0012 2.49996V6.81663C14.5186 6.9918 14.1016 7.31132 13.8069 7.73176C13.5122 8.15221 13.3542 8.65319 13.3542 9.16663C13.3542 9.68006 13.5122 10.181 13.8069 10.6015C14.1016 11.0219 14.5186 11.3415 15.0012 11.5166V17.5C15.0012 17.721 15.089 17.9329 15.2453 18.0892C15.4016 18.2455 15.6136 18.3333 15.8346 18.3333C16.0556 18.3333 16.2675 18.2455 16.4238 18.0892C16.5801 17.9329 16.6679 17.721 16.6679 17.5V11.5166C17.1505 11.3415 17.5675 11.0219 17.8622 10.6015C18.1569 10.181 18.315 9.68006 18.315 9.16663C18.315 8.65319 18.1569 8.15221 17.8622 7.73176C17.5675 7.31132 17.1505 6.9918 16.6679 6.81663ZM15.8346 9.99996C15.6697 9.99996 15.5086 9.95109 15.3716 9.85952C15.2345 9.76795 15.1277 9.6378 15.0647 9.48553C15.0016 9.33326 14.9851 9.1657 15.0172 9.00405C15.0494 8.8424 15.1288 8.69391 15.2453 8.57737C15.3619 8.46083 15.5103 8.38146 15.672 8.3493C15.8336 8.31715 16.0012 8.33365 16.1535 8.39673C16.3057 8.4598 16.4359 8.56661 16.5275 8.70365C16.619 8.84069 16.6679 9.00181 16.6679 9.16663C16.6679 9.38764 16.5801 9.5996 16.4238 9.75588C16.2675 9.91216 16.0556 9.99996 15.8346 9.99996ZM10.8346 11.8166V2.49996C10.8346 2.27895 10.7468 2.06698 10.5905 1.9107C10.4342 1.75442 10.2222 1.66663 10.0012 1.66663C9.78022 1.66663 9.56826 1.75442 9.41197 1.9107C9.25569 2.06698 9.1679 2.27895 9.1679 2.49996V11.8166C8.68527 11.9918 8.26828 12.3113 7.9736 12.7318C7.67892 13.1522 7.52083 13.6532 7.52083 14.1666C7.52083 14.6801 7.67892 15.181 7.9736 15.6015C8.26828 16.0219 8.68527 16.3415 9.1679 16.5166V17.5C9.1679 17.721 9.25569 17.9329 9.41197 18.0892C9.56826 18.2455 9.78022 18.3333 10.0012 18.3333C10.2222 18.3333 10.4342 18.2455 10.5905 18.0892C10.7468 17.9329 10.8346 17.721 10.8346 17.5V16.5166C11.3172 16.3415 11.7342 16.0219 12.0289 15.6015C12.3235 15.181 12.4816 14.6801 12.4816 14.1666C12.4816 13.6532 12.3235 13.1522 12.0289 12.7318C11.7342 12.3113 11.3172 11.9918 10.8346 11.8166ZM10.0012 15C9.83641 15 9.6753 14.9511 9.53825 14.8595C9.40121 14.768 9.2944 14.6378 9.23133 14.4855C9.16826 14.3333 9.15175 14.1657 9.18391 14.004C9.21606 13.8424 9.29543 13.6939 9.41197 13.5774C9.52852 13.4608 9.677 13.3815 9.83866 13.3493C10.0003 13.3172 10.1679 13.3337 10.3201 13.3967C10.4724 13.4598 10.6026 13.5666 10.6941 13.7037C10.7857 13.8407 10.8346 14.0018 10.8346 14.1666C10.8346 14.3876 10.7468 14.5996 10.5905 14.7559C10.4342 14.9122 10.2222 15 10.0012 15ZM5.00123 5.14996V2.49996C5.00123 2.27895 4.91343 2.06698 4.75715 1.9107C4.60087 1.75442 4.38891 1.66663 4.1679 1.66663C3.94688 1.66663 3.73492 1.75442 3.57864 1.9107C3.42236 2.06698 3.33456 2.27895 3.33456 2.49996V5.14996C2.85194 5.32513 2.43495 5.64465 2.14027 6.0651C1.84558 6.48554 1.6875 6.98653 1.6875 7.49996C1.6875 8.01339 1.84558 8.51437 2.14027 8.93482C2.43495 9.35527 2.85194 9.67479 3.33456 9.84996V17.5C3.33456 17.721 3.42236 17.9329 3.57864 18.0892C3.73492 18.2455 3.94688 18.3333 4.1679 18.3333C4.38891 18.3333 4.60087 18.2455 4.75715 18.0892C4.91343 17.9329 5.00123 17.721 5.00123 17.5V9.84996C5.48386 9.67479 5.90085 9.35527 6.19553 8.93482C6.49021 8.51437 6.64829 8.01339 6.64829 7.49996C6.64829 6.98653 6.49021 6.48554 6.19553 6.0651C5.90085 5.64465 5.48386 5.32513 5.00123 5.14996ZM4.1679 8.33329C4.00308 8.33329 3.84196 8.28442 3.70492 8.19285C3.56788 8.10128 3.46107 7.97113 3.398 7.81886C3.33492 7.66659 3.31842 7.49903 3.35058 7.33738C3.38273 7.17573 3.4621 7.02725 3.57864 6.9107C3.69519 6.79416 3.84367 6.71479 4.00532 6.68264C4.16697 6.65048 4.33453 6.66699 4.4868 6.73006C4.63907 6.79313 4.76922 6.89994 4.86079 7.03698C4.95236 7.17402 5.00123 7.33514 5.00123 7.49996C5.00123 7.72097 4.91343 7.93293 4.75715 8.08921C4.60087 8.24549 4.38891 8.33329 4.1679 8.33329Z" fill="#FAFAFA"/>
</g>
</svg>
